<svg xmlns="http://www.w3.org/2000/svg" viewBox="0 0 20 20"><path d="M3.6 4.6c.5 0 .9.2 1.2.5.3.3.5.7.5 1.2v11.5c0 .5-.2.9-.5 1.2-.3.3-.7.5-1.2.5H2.2c-.5 0-.9-.2-1.2-.5-.3-.3-.5-.7-.5-1.2V6.3c0-.5.2-.9.5-1.2.3-.3.7-.5 1.2-.5h1.4zm14.5 1.7c.4.2.7.6 1 1s.4.9.4 1.4v8.1a2.732 2.732 0 0 1-2.7 2.7H7.6c-.5 0-.9-.2-1.2-.5-.3-.3-.5-.7-.5-1.2V1.5c0-.3.1-.5.3-.7.2-.2.4-.3.7-.3H14c.3 0 .6.1.9.2s.6.3.8.5l1.6 1.6c.2.2.4.5.5.8s.2.7.2.9v1.8zm-7.8 10.5v-1.4c0-.1 0-.2-.1-.2-.1-.1-.1-.1-.2-.1H8.6c-.1 0-.2 0-.2.1-.1.1-.1.1-.1.2v1.4c0 .1 0 .2.1.2s.1.1.2.1H10c.1 0 .2 0 .2-.1.1 0 .1-.1.1-.2zm0-2.7v-1.4c0-.1 0-.2-.1-.2-.1-.1-.1-.1-.2-.1H8.6c-.1 0-.2 0-.2.1-.1.1-.1.1-.1.2v1.4c0 .1 0 .2.1.2.1.1.1.1.2.1H10c.1 0 .2 0 .2-.1.1 0 .1-.1.1-.2zm0-2.7V10c0-.1 0-.2-.1-.2-.1-.1-.1-.1-.2-.1H8.6c-.1 0-.2 0-.2.1-.1 0-.1.1-.1.2v1.4c0 .1 0 .2.1.2s.1.1.2.1H10c.1 0 .2 0 .2-.1.1-.1.1-.1.1-.2zm2.8 5.4v-1.4c0-.1 0-.2-.1-.2-.1-.1-.1-.1-.2-.1h-1.4c-.1 0-.2 0-.2.1-.2 0-.2.1-.2.2v1.4c0 .1 0 .2.1.2s.1.1.2.1h1.4c.1 0 .2 0 .2-.1.1 0 .2-.1.2-.2zm0-2.7v-1.4c0-.1 0-.2-.1-.2-.1-.1-.1-.1-.2-.1h-1.4c-.1 0-.2 0-.2.1-.2 0-.2.1-.2.2v1.4c0 .1 0 .2.1.2.1.1.1.1.2.1h1.4c.1 0 .2 0 .2-.1.1 0 .2-.1.2-.2zm0-2.7V10c0-.1 0-.2-.1-.2-.1-.1-.1-.1-.2-.1h-1.4c-.1 0-.2 0-.2.1-.2 0-.2.1-.2.2v1.4c0 .1 0 .2.1.2s.1.1.2.1h1.4c.1 0 .2 0 .2-.1.1-.1.2-.1.2-.2zm2.7 5.4v-1.4c0-.1 0-.2-.1-.2-.1-.1-.1-.1-.2-.1h-1.4c-.1 0-.2 0-.2.1-.1.1-.1.1-.1.2v1.4c0 .1 0 .2.1.2s.1.1.2.1h1.4c.1 0 .2 0 .2-.1s.1-.1.1-.2zm0-2.7v-1.4c0-.1 0-.2-.1-.2-.1-.1-.1-.1-.2-.1h-1.4c-.1 0-.2 0-.2.1-.1.1-.1.1-.1.2v1.4c0 .1 0 .2.1.2.1.1.1.1.2.1h1.4c.1 0 .2 0 .2-.1 0 0 .1-.1.1-.2zm0-2.7V10c0-.1 0-.2-.1-.2-.1-.1-.1-.1-.2-.1h-1.4c-.1 0-.2 0-.2.1-.1.1-.1.1-.1.2v1.4c0 .1 0 .2.1.2s.1.1.2.1h1.4c.1 0 .2 0 .2-.1s.1-.1.1-.2zm1-4.1V4.6h-1.7c-.3 0-.5-.1-.7-.3-.2-.2-.3-.4-.3-.7V1.9H7.3v5.4h9.5z"/></svg>