<svg xmlns="https://www.w3.org/2000/svg" viewBox="0 0 20 20"><path d="M8.6 4.6V3.2H7.3v1.4h1.3zM10 5.9V4.6H8.6V6H10zM8.6 7.3V5.9H7.3v1.4h1.3zM10 8.6V7.3H8.6v1.4H10zm7.4-4.1c.2.2.4.5.5.8.1.3.2.7.2.9v12.2c0 .3-.1.5-.3.7s-.4.3-.7.3H2.9c-.3 0-.5-.1-.7-.3s-.3-.4-.3-.7v-17c0-.2.1-.4.3-.6s.4-.3.7-.3h9.5c.3 0 .6.1.9.2s.6.3.8.5l3.3 3.3zm-4.7-2.6v4h4c-.1-.2-.1-.3-.2-.4l-3.3-3.3c-.1-.1-.3-.2-.5-.3zm4.1 16.2V7.3h-4.4c-.3 0-.5-.1-.7-.3-.2-.2-.3-.4-.3-.7V1.9H10v1.4H8.6V1.9H3.2v16.3h13.6zm-6.7-7.6l1.1 3.7c.1.2.1.4.1.6 0 .6-.3 1.1-.8 1.5s-1.2.6-1.9.6c-.8 0-1.4-.2-1.9-.6s-.8-.9-.8-1.5c0-.2 0-.4.1-.6.1-.4.6-1.8 1.3-4.2V8.6h1.4V10h.8c.2 0 .3 0 .4.1.1.1.2.2.2.4zm-1.5 4.9c.4 0 .7-.1 1-.2s.4-.3.4-.5-.1-.3-.4-.5-.6-.2-1-.2-.7.1-1 .2-.4.3-.4.5.1.3.4.5.7.2 1 .2z"/></svg>