<svg xmlns="http://www.w3.org/2000/svg" viewBox="0 0 20 20"><path d="M17.4 4.5c.2.2.4.5.5.8.1.3.2.7.2.9v12.2c0 .3-.1.5-.3.7s-.4.3-.7.3H2.9c-.3 0-.5-.1-.7-.3s-.3-.4-.3-.7v-17c0-.2.1-.4.3-.6s.4-.3.7-.3h9.5c.3 0 .6.1.9.2s.6.3.8.5l3.3 3.3zm-4.7-2.6v4h4c-.1-.2-.1-.3-.2-.4l-3.3-3.3c-.1-.1-.3-.2-.5-.3zm4.1 16.2V7.3h-4.4c-.3 0-.5-.1-.7-.3-.2-.2-.3-.4-.3-.7V1.9H3.2v16.3h13.6zM8.4 9.5c.1.1.2.2.2.3v5.8c0 .2-.1.3-.2.3h-.1c-.1 0-.2 0-.2-.1L6.3 14H4.9c-.1 0-.2 0-.2-.1-.1-.1-.1-.1-.1-.2v-2c0-.1 0-.2.1-.2.1-.1.1-.1.2-.1h1.4l1.8-1.8c.1-.1.2-.1.3-.1zm4.5 7.3c.2 0 .4-.1.5-.3.9-1.1 1.4-2.4 1.4-3.8s-.5-2.7-1.4-3.8c-.1-.1-.3-.2-.5-.3-.2 0-.4 0-.5.1-.1.1-.2.3-.2.5s0 .4.2.5c.7.9 1.1 1.9 1.1 3s-.4 2.1-1.1 3c-.1.1-.2.3-.2.5s.1.3.2.5c.2.1.3.1.5.1zm-2.3-1.6c.2 0 .4-.1.5-.2.6-.7.9-1.4.9-2.3s-.3-1.7-.9-2.3c-.1-.1-.3-.2-.5-.2s-.4.1-.5.2c-.1.1-.2.3-.2.5s.1.4.2.5c.4.4.6.9.6 1.4 0 .5-.2 1-.6 1.4-.1.1-.2.3-.2.5s.1.3.2.5h.5z"/></svg>