<svg xmlns="http://www.w3.org/2000/svg" viewBox="0 0 20 20"><path d="M17.4 4.5c.2.2.4.5.5.8.1.3.2.7.2.9v12.2c0 .3-.1.5-.3.7s-.4.3-.7.3H2.9c-.3 0-.5-.1-.7-.3s-.3-.4-.3-.7v-17c0-.2.1-.4.3-.6s.4-.3.7-.3h9.5c.3 0 .6.1.9.2s.6.3.8.5l3.3 3.3zm-4.7-2.6v4h4c-.1-.2-.1-.3-.2-.4l-3.3-3.3c-.1-.1-.3-.2-.5-.3zm4.1 16.2V7.3h-4.4c-.3 0-.5-.1-.7-.3-.2-.2-.3-.4-.3-.7V1.9H3.2v16.3h13.6zm-5.5-6.2c.2.2.5.4.9.6.4 0 .8-.1 1.2-.1 1 0 1.7.2 1.9.5.1.2.1.3 0 .6 0 .3-.3.4-.8.4-.3 0-.7-.1-1.2-.2s-.9-.3-1.4-.6c-1.5.2-2.9.5-4.1.9-1.1 1.9-1.9 2.8-2.6 2.8-.1 0-.2 0-.3-.1l-.3-.1-.1-.1c-.1-.1-.1-.2-.1-.4.1-.3.3-.6.6-1s.8-.7 1.4-1c.1-.1.2 0 .2.1.6-.5 1-1.2 1.4-2 .5-1 .8-1.9 1.1-2.8-.2-.6-.3-1.1-.3-1.7 0-.5 0-1 .1-1.4 0-.2.1-.4.4-.4h.2c.2 0 .3.1.4.2.1.1.1.4.1.7v.5c0 .9-.1 1.5-.1 2 .3 1.2.8 2 1.4 2.6zm-6.1 4.3c.4-.2.9-.7 1.5-1.7-.4.3-.7.6-.9.9-.3.3-.5.6-.6.8zm4.2-9.7c-.1.3-.1.8 0 1.4 0 0 0-.2.1-.5 0 0 0-.2.1-.5v-.1c0-.2-.1-.3-.2-.3.1-.1.1-.1 0 0zm-1.3 7c1-.4 2-.7 3-.9 0 0-.1 0-.1-.1-.1-.1-.1-.1-.2-.1-.5-.5-1-1.1-1.3-1.9-.2.6-.5 1.3-.9 2.1-.2.4-.4.7-.5.9zm6.9-.2c-.2-.2-.7-.3-1.5-.3.5.2 1 .3 1.3.3h.2z"/></svg>