<svg xmlns="https://www.w3.org/2000/svg" viewBox="0 0 20 20"><path d="M17.4 4.5c.2.2.4.5.5.8.1.3.2.7.2.9v12.2c0 .3-.1.5-.3.7s-.4.3-.7.3H2.9c-.3 0-.5-.1-.7-.3s-.3-.4-.3-.7v-17c0-.2.1-.4.3-.6s.4-.3.7-.3h9.5c.3 0 .6.1.9.2s.6.3.8.5l3.3 3.3zm-4.7-2.6v4h4c-.1-.2-.1-.3-.2-.4l-3.3-3.3c-.1-.1-.3-.2-.5-.3zm4.1 16.2V7.3h-4.4c-.3 0-.5-.1-.7-.3-.2-.2-.3-.4-.3-.7V1.9H3.2v16.3h13.6zM6.9 8.6c.1 0 .2-.1.3-.1.1 0 .2 0 .3.1L8 9s.1.1.1.2 0 .2-.1.3L6.1 12 8 14.6c.1.1.1.2.1.3 0 .1-.1.1-.1.2l-.5.4c-.1.1-.2.1-.3.1-.1 0-.2-.1-.2-.1l-2.4-3.2c-.1-.1-.1-.3 0-.4l2.3-3.3zm8.5 3.2c.1.1.1.3 0 .4L13 15.4c-.1.1-.1.1-.2.1s-.2 0-.3-.1l-.5-.3c0-.1-.1-.1-.1-.2s0-.2.1-.3l1.9-2.6L12 9.5c-.1-.1-.1-.2-.1-.3 0-.1.1-.2.1-.2l.5-.4c.1-.1.2-.1.3-.1s.2.1.2.1l2.4 3.2zm-6.5 4.9c-.1 0-.2-.1-.2-.1-.1-.1-.1-.2-.1-.3l1.5-8.8c0-.1.1-.2.1-.2.1-.1.2-.1.3-.1l.7.1c.1 0 .2.1.2.1.1.1.1.2.1.3L10 16.5c0 .1-.1.2-.1.2-.1.1-.2.1-.3.1l-.7-.1z"/></svg>