<svg xmlns="https://www.w3.org/2000/svg" viewBox="0 0 20 20"><path d="M17.4 4.5c.2.2.4.5.5.8.1.3.2.7.2.9v12.2c0 .3-.1.5-.3.7s-.4.3-.7.3H2.9c-.3 0-.5-.1-.7-.3s-.3-.4-.3-.7v-17c0-.2.1-.4.3-.6s.4-.3.7-.3h9.5c.3 0 .6.1.9.2s.6.3.8.5l3.3 3.3zm-4.7-2.6v4h4c-.1-.2-.1-.3-.2-.4l-3.3-3.3c-.1-.1-.3-.2-.5-.3zm4.1 16.2V7.3h-4.4c-.3 0-.5-.1-.7-.3-.2-.2-.3-.4-.3-.7V1.9H3.2v16.3h13.6zm-1.4-4.7v3.4H4.6v-2l2-2L8 14.1l4-4.1 3.4 3.4zm-8.8-2c-.6 0-1-.2-1.4-.6-.4-.4-.6-.9-.6-1.4 0-.6.2-1 .6-1.4.4-.5.8-.7 1.4-.7s1 .2 1.4.6c.4.4.6.9.6 1.4 0 .6-.2 1-.6 1.4-.3.5-.8.7-1.4.7z"/></svg>