<svg xmlns="http://www.w3.org/2000/svg" viewBox="0 0 20 20"><path d="M7.8 12.9c0 .3 0 .6-.1.9-.1.3-.3.6-.5.9s-.5.4-.8.4c-.3 0-.6-.1-.8-.4s-.5-.5-.6-.8-.1-.6-.1-.9c0-.3 0-.6.1-.9.1-.3.3-.6.5-.9.2-.3.5-.4.8-.4.3 0 .6.1.8.4.2.3.4.5.5.9.2.2.2.5.2.8zm7.3 0c0 .3 0 .6-.1.9s-.3.6-.5.9-.5.4-.8.4c-.3 0-.6-.1-.8-.4-.2-.3-.4-.5-.5-.9s-.1-.6-.1-.9c0-.3 0-.6.1-.9.1-.3.3-.6.5-.9.2-.3.5-.4.8-.4.3 0 .6.1.8.4.2.3.4.5.5.9.1.3.1.6.1.9zm1.8 0c0-.9-.3-1.7-.8-2.3-.5-.6-1.2-1-2.1-1-.3 0-1.1.1-2.2.2-.5.2-1.1.2-1.8.2s-1.3 0-1.8-.1c-1.1-.2-1.9-.3-2.2-.3-.9 0-1.6.3-2.1 1s-.8 1.4-.8 2.3c0 .7.1 1.3.4 1.8s.6.9.9 1.2.8.5 1.4.7 1.1.3 1.6.3c.4 0 1 .1 1.6.1h2c.6 0 1.2 0 1.7-.1s1-.2 1.6-.3c.6-.2 1-.4 1.4-.7s.7-.7.9-1.2c.2-.5.3-1.1.3-1.8zm2.6-2c0 1.6-.2 2.8-.7 3.8-.3.6-.7 1.1-1.2 1.5-.5.4-1.1.8-1.6 1-.6.2-1.2.4-1.9.5-.7.1-1.4.2-2 .3-.6 0-1.2.1-1.9.1H8.6c-.5 0-1-.1-1.7-.1-.6-.1-1.2-.2-1.7-.3s-1-.4-1.6-.6-1-.5-1.4-.9-.7-.8-1-1.3c-.5-.9-.7-2.2-.7-3.8 0-1.8.5-3.3 1.6-4.5-.3-.8-.4-1.5-.4-2.1 0-.9.2-1.7.6-2.5.8 0 1.5.2 2.2.5s1.3.8 2.2 1.4c1.1-.3 2.3-.4 3.5-.4 1.1 0 2.2.1 3.2.4.8-.6 1.5-1.1 2.1-1.4.6-.4 1.4-.5 2.2-.5.4.8.6 1.6.6 2.5 0 .7-.1 1.3-.3 1.9 1 1.2 1.5 2.7 1.5 4.5z"/></svg>