<svg xmlns="http://www.w3.org/2000/svg" viewBox="0 0 20 20"><path d="M11.8 10.1c0-.2 0-.5-.1-.8H7.3V11H10c0 .2-.1.4-.2.6s-.3.4-.5.6c-.2.2-.5.4-.8.6s-.8.2-1.2.2c-.8 0-1.5-.3-2.1-.9s-.9-1.3-.9-2.1.3-1.5.9-2.1S6.5 7 7.3 7c.7 0 1.4.2 1.9.7l1.3-1.2c-.9-.8-2-1.2-3.2-1.2-1.3-.1-2.4.4-3.4 1.3s-1.4 2-1.4 3.4.5 2.4 1.4 3.4 2 1.4 3.4 1.4 2.5-.4 3.3-1.3 1.2-2 1.2-3.4zm4.3.6h1.3V9.3h-1.3V8h-1.4v1.4h-1.4v1.4h1.4V12h1.4v-1.3zm3.4-6.6V16c0 1-.3 1.8-1 2.5s-1.5 1-2.5 1H4.1c-1 0-1.8-.3-2.5-1S.6 17 .6 16V4.1c0-1 .3-1.8 1-2.5s1.5-1 2.5-1H16c1 0 1.8.3 2.5 1 .7.6 1 1.5 1 2.5z"/></svg>