<svg xmlns="https://www.w3.org/2000/svg" viewBox="0 0 20 20"><path d="M17.3 16.6v-8h-1.7c.2.5.2 1.1.2 1.6 0 1-.3 2-.8 2.9-.5.9-1.2 1.6-2.2 2.1-.9.5-1.9.8-3 .8-1.6 0-3-.6-4.2-1.7s-1.7-2.5-1.7-4.1c0-.6.1-1.1.2-1.6H2.6v8c0 .2.1.4.2.5.1.1.3.2.5.2h13.2c.2 0 .4-.1.5-.2s.3-.3.3-.5zM13.8 10c0-1-.4-1.9-1.1-2.6S11.1 6.3 10 6.3c-1 0-1.9.4-2.7 1.1S6.2 8.9 6.2 10s.4 1.9 1.1 2.6S9 13.7 10 13.7c1.1 0 2-.4 2.7-1.1s1.1-1.6 1.1-2.6zm3.5-4.5v-2c0-.2-.1-.4-.2-.6-.2-.2-.4-.3-.6-.3h-2.2c-.2 0-.4.1-.6.3-.2.2-.2.4-.2.6v2c0 .2.1.4.2.6.2.2.4.2.6.2h2.2c.2 0 .4-.1.6-.2.2-.1.2-.4.2-.6zm2.2-2.6V17c0 .7-.2 1.2-.7 1.7s-1.1.7-1.7.7H2.9c-.7 0-1.2-.2-1.7-.7S.5 17.6.5 17V2.9c0-.7.2-1.2.7-1.7S2.3.5 2.9.5H17c.7 0 1.2.2 1.7.7s.8 1.1.8 1.7z"/></svg>