<svg xmlns="https://www.w3.org/2000/svg" viewBox="0 0 20 20"><path d="M3.4 16.4h2.9V7.8H3.4v8.6zM6.5 5.2c0-.4-.2-.8-.4-1.1-.4-.3-.7-.4-1.2-.4s-.9.1-1.2.4c-.3.3-.4.6-.4 1.1 0 .4.1.8.4 1.1s.7.4 1.1.4c.5 0 .9-.1 1.2-.4s.5-.7.5-1.1zm7.2 11.2h2.9v-4.9c0-1.3-.3-2.2-.9-2.9-.6-.7-1.4-1-2.4-1-1.1 0-2 .5-2.6 1.4V7.8H7.9v8.6h2.9v-4.8c0-.3 0-.5.1-.7.1-.3.3-.5.6-.7.2-.2.6-.3.9-.3 1 0 1.4.6 1.4 1.9v4.6zm5.8-12.3V16c0 1-.3 1.8-1 2.5s-1.5 1-2.5 1H4.1c-1 0-1.8-.3-2.5-1S.6 17 .6 16V4.1c0-1 .3-1.8 1-2.5s1.5-1 2.5-1H16c1 0 1.8.3 2.5 1 .7.6 1 1.5 1 2.5z"/></svg>