<svg xmlns="https://www.w3.org/2000/svg" viewBox="0 0 20 20"><path d="M11.2 17.6c0-.3-.1-.6-.3-.8s-.5-.3-.8-.3-.6.1-.8.3-.3.5-.3.8.1.6.3.8.5.3.8.3.6-.1.8-.3.3-.5.3-.8zm3.1-2.4V4.8c0-.1 0-.2-.1-.3-.1-.1-.2-.1-.3-.1H6.2c-.1 0-.2 0-.3.1-.1 0-.2.1-.2.3v10.5c0 .1 0 .2.1.3.1.1.2.1.3.1h7.6c.1 0 .2 0 .3-.1.2-.1.3-.2.3-.4zM11.4 2.6c0-.2-.1-.2-.2-.2H8.8c-.2 0-.2.1-.2.2 0 .2.1.2.2.2h2.4c.1.1.2 0 .2-.2zm4.3-.2v15.2c0 .5-.2 1-.6 1.3-.4.4-.8.6-1.3.6H6.2c-.5 0-1-.2-1.3-.6-.4-.4-.6-.8-.6-1.3V2.4c0-.5.2-1 .6-1.3S5.7.5 6.2.5h7.6c.5 0 1 .2 1.3.6s.6.8.6 1.3z"/></svg>