<svg xmlns="https://www.w3.org/2000/svg" viewBox="0 0 20 20"><path d="M17.8 7.3c.1.6.1 1.3 0 2.2-.6 3.1-2.6 4.7-6 4.7h-.5c-.2 0-.3.1-.5.2-.1.1-.2.3-.3.5v.2l-.6 3.7v.2c0 .2-.1.3-.3.5-.1.1-.3.2-.5.2H6.5c-.1 0-.3-.1-.3-.2-.1-.3-.2-.4-.1-.5.1-.4.2-1 .3-1.8s.2-1.4.3-1.8c.1-.4.2-1 .3-1.8.1-.8.2-1.4.3-1.8 0-.3.2-.4.5-.4H9c.9 0 1.8-.1 2.5-.2 1.2-.3 2.3-.8 3-1.5.7-.7 1.3-1.5 1.6-2.6.2-.5.3-1 .4-1.4v-.1h.1c.7.4 1 1 1.2 1.7zm-1.9-2.9c0 .8-.2 1.6-.5 2.5-.6 1.6-1.6 2.8-3.2 3.3-.8.3-1.7.4-2.7.4h-2c-.7 0-1.1.3-1.3 1 0 .1-.3 1.9-.9 5.6 0 .1 0 .1-.1.1H2.3c-.2 0-.3-.1-.4-.2-.1-.1-.1-.3-.1-.4L4.2 1.2c0-.2.1-.4.3-.5.2-.1.3-.2.5-.2h6.3c.2 0 .6 0 1 .1l1.2.3c.8.3 1.3.7 1.7 1.3.5.7.7 1.4.7 2.2z"/></svg>