<svg xmlns="http://www.w3.org/2000/svg" viewBox="0 0 20 20"><path d="M15.9.5c1 0 1.8.3 2.5 1s1 1.5 1 2.5v11.9c0 1-.3 1.8-1 2.5s-1.5 1-2.5 1H7c.7-1 1.1-1.9 1.3-2.6.1-.3.3-1.1.7-2.6.2.3.5.6.9.8.4.2.9.3 1.4.3 1.5 0 2.7-.6 3.7-1.8s1.4-2.8 1.4-4.6c0-.7-.1-1.4-.4-2-.3-.6-.7-1.2-1.2-1.7s-1.1-.9-1.9-1.2-1.6-.5-2.4-.5c-1 .2-1.8.3-2.5.5-.8.3-1.4.6-1.9 1s-1 .8-1.3 1.4-.6 1-.8 1.6-.3 1-.3 1.5c0 .8.2 1.6.5 2.2.3.6.8 1.1 1.4 1.4h.3c.1 0 .1-.1.2-.2.1-.4.1-.6.2-.8 0-.2 0-.4-.1-.5-.4-.5-.6-1.1-.6-1.9 0-1.2.4-2.3 1.3-3.2s2-1.3 3.3-1.3c1.2 0 2.2.3 2.9 1 .7.7 1 1.5 1 2.6 0 1.4-.3 2.6-.8 3.5s-1.3 1.5-2.1 1.5c-.5 0-.9-.2-1.2-.5-.3-.4-.4-.8-.3-1.3.1-.3.2-.7.3-1.1.2-.5.3-.9.4-1.3s.1-.7.1-.9c0-.4-.1-.7-.3-1-.4-.3-.7-.4-1.1-.4-.5 0-.9.2-1.2.7-.4.5-.5 1-.5 1.7 0 .6.1 1.1.3 1.5l-1.2 5.1c-.2.8-.2 1.9-.1 3.1H4.1c-1 0-1.8-.3-2.5-1s-1-1.5-1-2.5V4.1c0-1 .3-1.8 1-2.5s1.5-1 2.5-1h11.8z"/></svg>