<svg xmlns="https://www.w3.org/2000/svg" viewBox="0 0 20 20"><path d="M2.7 7.3c0-.8.1-1.6.4-2.3s.7-1.4 1.2-1.9 1.1-1 1.7-1.4S7.4 1 8.2.8 9.7.5 10.5.5c1.2 0 2.3.3 3.4.8s1.9 1.2 2.5 2.2c.6 1 1 2.1 1 3.3 0 .7-.1 1.4-.2 2.1-.1.7-.4 1.4-.7 2s-.7 1.2-1.1 1.7c-.4.5-1 .9-1.7 1.2-.7.3-1.4.4-2.2.4-.5 0-1-.1-1.5-.4-.5-.2-.9-.6-1.1-1-.1.3-.2.7-.3 1.3-.1.6-.2.9-.3 1.1 0 .2-.1.4-.2.8s-.2.6-.3.8-.2.4-.4.7-.4.7-.6 1-.4.6-.7 1l-.2.1-.1-.1c-.1-1.2-.2-1.9-.2-2.1 0-.7.1-1.5.2-2.4.2-.9.4-2 .8-3.3s.5-2.1.6-2.3c-.2-.6-.3-1.3-.3-2 0-.6.2-1.2.6-1.8s.9-.9 1.5-.9c.5 0 .8.2 1.1.5.3.3.4.7.4 1.2s-.2 1.2-.5 2.2c-.3 1-.5 1.7-.5 2.1 0 .5.2.9.5 1.2.3.3.8.5 1.2.5.4 0 .8-.1 1.2-.3.4-.2.7-.4.9-.8.2-.3.5-.7.6-1.1.2-.4.3-.8.4-1.3s.2-.9.2-1.3.1-.8.1-1.1c0-1.3-.4-2.3-1.3-3.1-.8-.7-1.9-1.1-3.3-1.1-1.5 0-2.8.5-3.8 1.5S4.8 6.1 4.8 7.6c0 .3 0 .7.1 1 .1.3.2.5.4.7.1.2.2.4.3.5.1.2.1.3.1.3 0 .2-.1.5-.2.8-.1.3-.3.5-.4.5h-.2c-.4-.1-.7-.3-1-.6-.3-.3-.5-.7-.7-1.1-.2-.3-.3-.8-.4-1.2-.1-.4-.1-.8-.1-1.2z"/></svg>