<svg xmlns="https://www.w3.org/2000/svg" viewBox="0 0 20 20"><path d="M12.1 12.9c.1.1.1.2 0 .3-.4.4-1.1.7-2.1.7s-1.7-.2-2.1-.7c-.1-.1-.1-.2 0-.3 0 0 .1-.1.2-.1s.1 0 .2.1c.3.3.9.5 1.8.5s1.4-.2 1.8-.5c0 0 .1-.1.2-.1-.1 0 0 0 0 .1zM8.9 11c0 .3-.1.5-.3.7-.2.2-.4.3-.7.3-.3 0-.5-.1-.7-.3-.1-.3-.2-.5-.2-.7 0-.3.1-.5.3-.7s.3-.3.6-.3.5.1.7.3.3.4.3.7zm4.1 0c0 .3-.1.5-.3.7-.2.2-.4.3-.7.3s-.5-.1-.7-.3c-.2-.2-.3-.4-.3-.7 0-.3.1-.5.3-.7s.4-.3.7-.3.5.1.7.3.3.4.3.7zm2.7-1.3c0-.3-.1-.6-.4-.9-.2-.2-.5-.4-.9-.4-.3 0-.6.1-.9.4-.9-.6-2-1-3.3-1l.7-3 2.1.5c0 .3.1.5.3.7.2.2.4.3.7.3.3 0 .5-.1.7-.3s.3-.4.3-.7-.1-.5-.3-.7-.5-.3-.7-.3c-.4 0-.7.2-.9.5l-2.3-.5c-.1 0-.2 0-.3.2l-.7 3.3c-1.3 0-2.4.4-3.3 1-.3-.3-.6-.4-.9-.4-.4 0-.7.1-.9.4-.3.2-.4.5-.4.9 0 .2.1.5.2.7.1.2.3.4.5.5v.5c0 1 .5 1.9 1.5 2.6 1 .7 2.2 1.1 3.6 1.1s2.6-.4 3.6-1.1c1-.7 1.5-1.6 1.5-2.6 0-.2 0-.4-.1-.6.2-.1.4-.3.5-.5s.1-.4.1-.6zm3.8-5.6V16c0 1-.3 1.8-1 2.5s-1.5 1-2.5 1H4.1c-1 0-1.8-.3-2.5-1S.6 17 .6 16V4.1c0-1 .3-1.8 1-2.5s1.5-1 2.5-1H16c1 0 1.8.3 2.5 1 .7.6 1 1.5 1 2.5z"/></svg>