<svg xmlns="https://www.w3.org/2000/svg" viewBox="0 0 20 20"><path d="M12.1 12.9c.1.1.1.2 0 .3-.4.4-1.1.7-2.1.7s-1.7-.2-2.1-.7c-.1-.1-.1-.2 0-.3 0 0 .1-.1.2-.1s.1 0 .2.1c.3.3.9.5 1.8.5.8 0 1.4-.2 1.8-.5 0 0 .1-.1.2-.1-.1 0 0 0 0 .1zM8.9 11c0 .3-.1.5-.3.7-.2.2-.4.3-.7.3-.3 0-.5-.1-.7-.3-.1-.3-.2-.5-.2-.7 0-.3.1-.5.3-.7.1-.2.3-.3.6-.3s.5.1.7.3c.2.2.3.4.3.7zm4.1 0c0 .3-.1.5-.3.7-.2.2-.4.3-.7.3-.3 0-.5-.1-.7-.3-.2-.2-.3-.4-.3-.7s.1-.5.3-.7c.2-.2.4-.3.7-.3.3 0 .5.1.7.3.2.2.3.4.3.7zm2.7-1.3c0-.3-.1-.6-.4-.9-.2-.2-.5-.4-.9-.4s-.7.1-.9.4c-.9-.6-2-1-3.3-1l.7-3 2.1.5c0 .3.1.5.3.7.2.2.4.3.7.3.3 0 .5-.1.7-.3.2-.2.3-.4.3-.7s-.1-.5-.3-.7c-.2-.2-.4-.3-.7-.3-.4 0-.7.2-.8.5l-2.3-.5c-.1 0-.2 0-.3.2l-.8 3.3c-1.3 0-2.4.4-3.3 1-.3-.2-.6-.4-.9-.4-.4 0-.7.1-.9.4-.3.2-.4.5-.4.9 0 .2.1.5.2.7.1.2.3.4.5.5v.5c0 1 .5 1.9 1.5 2.6 1 .7 2.2 1.1 3.6 1.1s2.6-.4 3.6-1.1c1-.7 1.5-1.6 1.5-2.6 0-.2 0-.4-.1-.6.2-.1.4-.3.5-.5 0-.1.1-.4.1-.6zm3.8.3c0 1.3-.3 2.5-.8 3.7-.5 1.2-1.2 2.2-2 3-.8.8-1.9 1.5-3 2-1.2.5-2.4.8-3.7.8s-2.5-.3-3.7-.8c-1.2-.5-2.2-1.2-3-2-.8-.8-1.5-1.9-2-3S.5 11.3.5 10s.3-2.5.8-3.7 1.2-2.2 2-3 1.9-1.5 3-2S8.7.5 10 .5s2.5.3 3.7.8 2.2 1.2 3 2c.8.8 1.5 1.9 2 3 .5 1.2.8 2.4.8 3.7z"/></svg>