<svg xmlns="http://www.w3.org/2000/svg" viewBox="0 0 20 20"><path d="M19.5 10c0 .4-.1.8-.3 1.1s-.5.6-.8.8c.1.3.1.7.1 1 0 1.1-.4 2.1-1.1 3-.8.9-1.8 1.7-3.1 2.2-1.3.6-2.8.9-4.3.9s-2.9-.3-4.2-.8c-1.3-.5-2.3-1.3-3.1-2.2-.7-1-1.1-2-1.1-3.1 0-.3 0-.7.1-1-.4-.2-.7-.4-.9-.8-.2-.3-.3-.7-.3-1.1 0-.6.2-1.1.6-1.5s.9-.6 1.5-.6 1.1.2 1.5.7C5.6 7.5 7.5 7 9.6 6.9l1.2-5.5c0-.1.1-.2.2-.2s.2-.2.3-.2l3.9.9c.1-.3.3-.5.6-.6s.5-.3.8-.3c.4 0 .8.2 1.1.5s.5.7.5 1.1-.2.8-.5 1.1-.7.5-1.1.5-.8-.2-1.1-.5c-.3-.3-.5-.6-.5-1.1l-3.5-.8-1.1 5c2.1.1 4 .6 5.5 1.7.4-.4.9-.6 1.5-.6s1.1.2 1.5.6c.4.4.6.9.6 1.5zM4.9 12.1c0 .4.2.8.5 1.1.3.3.7.5 1.1.5s.8-.2 1.1-.5c.3-.3.5-.7.5-1.1 0-.4-.2-.8-.5-1.1-.3-.3-.7-.5-1.1-.5-.4 0-.8.2-1.1.5-.3.3-.5.7-.5 1.1zm8.6 3.8c.1-.1.1-.2.1-.3s0-.2-.1-.3c-.1-.1-.2-.1-.3-.1s-.2 0-.3.1c-.3.3-.7.5-1.3.7-.6.1-1.1.2-1.7.2s-1-.1-1.6-.2c-.6-.1-1-.4-1.3-.7-.1-.1-.2-.1-.3-.1-.1 0-.2 0-.3.1-.1.1-.1.2-.1.3 0 .1 0 .2.1.3.3.3.7.5 1.3.7.5.2 1 .3 1.3.3h2c.3 0 .8-.1 1.3-.3.5-.2.9-.4 1.2-.7zm0-2.2c.4 0 .8-.2 1.1-.5s.5-.7.5-1.1c0-.4-.2-.8-.5-1.1-.3-.3-.7-.5-1.1-.5-.4 0-.8.2-1.1.5-.3.3-.5.7-.5 1.1 0 .4.2.8.5 1.1s.7.5 1.1.5z"/></svg>