<svg xmlns="https://www.w3.org/2000/svg" viewBox="0 0 20 20"><path d="M17.8 9.4c.5 0 .9.2 1.2.5s.5.7.5 1.2c0 .7-.4 1.2-1.1 1.5l-2 .7.6 1.9c.1.2.1.3.1.5 0 .4-.2.8-.5 1.2-.3.3-.7.5-1.2.5-.4 0-.7-.1-1-.3-.3-.2-.5-.5-.6-.8l-.6-1.9-3.5 1.2.6 1.9c.1.2.1.4.1.5 0 .4-.2.8-.5 1.2s-.7.5-1.2.5c-.4 0-.7-.1-1-.3-.3-.2-.5-.5-.6-.8l-.6-1.9-1.7.6c-.2.1-.4.1-.6.1-.5 0-.9-.2-1.2-.5s-.5-.7-.5-1.2c0-.4.1-.7.3-1 .2-.3.5-.5.8-.6l1.8-.6-.9-3.6-1.8.6c-.2.1-.4.1-.5.1-.5 0-.8-.2-1.2-.5S.5 9.4.5 8.9c0-.4.1-.7.3-1s.5-.5.8-.6l1.8-.6L2.8 5c0-.2-.1-.4-.1-.6 0-.5.2-.8.5-1.2s.7-.5 1.2-.5c.4 0 .7.1 1 .3.3.2.5.5.6.8l.6 1.8 3.5-1.2-.6-1.7c-.1-.2-.1-.4-.1-.5 0-.4.2-.8.5-1.2.3-.3.7-.5 1.2-.5.4 0 .7.1 1 .3.3.2.5.5.6.8l.6 1.8 1.8-.6c.2 0 .3-.1.5-.1.5 0 .8.2 1.2.5.3.3.5.7.5 1.1 0 .3-.1.7-.3.9-.2.3-.5.5-.8.6l-1.8.6 1.2 3.6 1.9-.6h.3zm-9 3l3.5-1.2-1.2-3.6-3.5 1.2 1.2 3.6z"/></svg>