<svg xmlns="http://www.w3.org/2000/svg" width="20" height="20" viewBox="0 0 20 20"><path d="M15.7 8.3c.2-.1.5-.2.7-.2.3 0 .7 0 1 .1.5.3.5.9.1 1.2-.4.3-.8.4-1.2.6-1 .4-1.1.6-.6 1.5.8 1.5 1.9 2.6 3.6 3 .2.1.5.2.5.3 0 .2-.1.6-.3.7-.6.3-1.2.5-1.8.6-.4.1-.5.2-.6.6-.2.8-.3.9-1.1.7-1.2-.2-2.2 0-3.2.7-2 1.5-3.6 1.5-5.6 0-1-.7-2-.9-3.2-.7-.8.2-.9.1-1.1-.7-.1-.3-.2-.5-.6-.6-.6-.1-1.2-.3-1.7-.6-.2-.1-.4-.5-.4-.7 0-.1.3-.3.6-.4 1.8-.5 3-1.8 3.7-3.4.2-.4 0-.7-.3-.8-.3-.2-.6-.3-.9-.4l-.6-.3c-.4-.2-.7-.5-.5-1 .1-.3.7-.5 1.1-.3.3.1.5.2.8.2.3.1.5 0 .5-.5 0-1-.1-1.9 0-2.8.2-2 1.3-3.3 3.1-4 2.6-1 5.7-.2 7.1 2.3.5.9.6 1.8.6 2.8 0 .6-.1 1.2-.1 1.8-.1.3.1.4.4.3z"/></svg>