<svg xmlns="http://www.w3.org/2000/svg" viewBox="0 0 20 20"><path d="M7 13.9l.1-2L7 7.6c0-.1 0-.1-.1-.1l-.1-.1s-.1 0-.1.1l-.1.1-.1 4.3.1 2c0 .1 0 .1.1.1l.1.1c.1 0 .2 0 .2-.2zm2.4-.2l.1-1.7-.1-4.9c0-.1 0-.2-.1-.2h-.1-.1c-.1.1-.2.1-.2.2l-.1 4.8s0 .7.1 1.9v.1c0 .1.1.1.2.1s.1 0 .2-.1c0 0 .1-.1.1-.2zM.8 10.9l.2 1-.2 1s0 .1-.1.1c0 0-.1 0-.1-.1l-.1-1 .1-1.1c.1 0 .1 0 .2.1 0-.1 0-.1 0 0zm.7-.7l.2 1.7-.2 1.7s0 .1-.1.1c0 0-.1 0-.1-.1l-.2-1.7.2-1.7h.2zm.8-.3l.2 2-.2 2c0 .1 0 .1-.1.1s-.1 0-.1-.1l-.2-2 .2-2s0-.1.2 0c-.1-.1 0 0 0 0zm.7 0l.2 2.1-.2 2c0 .1 0 .1-.1.1s-.1 0-.1-.1l-.2-2 .2-2.1c0-.1 0-.1.1-.1s.1 0 .1.1zm.8.1l.2 1.9-.2 2c0 .1-.1.1-.1.1h-.1v-.1l-.2-2 .2-1.9v-.1h.1c.1 0 .1 0 .1.1zm.8-1.2l.2 3.1-.2 2v.1h-.1c-.1 0-.1 0-.1-.1l-.1-2 .1-3.1c0-.1.1-.1.1-.1h.1v.1zm.8-.7l.1 3.9-.2 2v.1h-.1c-.1 0-.2 0-.2-.1l-.1-2L5 8.1c0-.1.1-.2.2-.2h.1l.1.2zm.8-.3l.1 4.2-.1 2c0 .1-.1.2-.2.2s-.2-.1-.2-.2l-.1-2 .1-4.2s0-.1.1-.1l.1-.1s.1 0 .1.1c0 0 .1 0 .1.1zm1.6-.1l.1 4.2-.1 2c0 .1 0 .1-.1.1l-.1.1s-.1 0-.1-.1l-.1-.1-.1-2 .1-4.2c0-.1 0-.1.1-.1s.1-.1.1-.1.1 0 .1.1.1.1.1.1zm.8.2l.1 4.1-.1 1.9c0 .1 0 .1-.1.2 0 0-.1.1-.2.1s-.1 0-.2-.1c0 0-.1-.1-.1-.2v-2l.1-4.1c0-.1 0-.1.1-.2 0 0 .1-.1.2-.1s.1 0 .2.1v.3zm1.7 4l-.1 1.9c0 .1 0 .1-.1.2 0 0-.1.1-.2.1s-.1 0-.2-.1c0 0-.1-.1-.1-.2v-1.9l.1-5.2c0-.1 0-.1.1-.2 0 0 .1-.1.2-.1h.1c.1 0 .1.1.1.2l.1 5.3zm9.2-.1c0 .6-.2 1.2-.7 1.6s-1 .7-1.6.7h-6.5c-.1 0-.1 0-.2-.1 0 0-.1-.1-.1-.2V6.4c0-.1.1-.2.2-.3.5-.2 1-.3 1.5-.3 1.1 0 2 .4 2.8 1.1.8.7 1.2 1.6 1.3 2.7.3-.1.6-.2.9-.2.6 0 1.2.2 1.6.7.6.5.8 1 .8 1.7z"/></svg>