<svg xmlns="https://www.w3.org/2000/svg" viewBox="0 0 20 20"><path d="M14.6 17l-.8-2.3c-.4.2-.8.3-1.3.3-.3 0-.6 0-.8-.1-.2-.1-.4-.2-.5-.4-.1-.2-.2-.3-.2-.5s-.1-.3-.1-.5v-5h3.2V6.1H11v-4H8.7c-.1 0-.1 0-.1.1 0 .4-.1.7-.2 1.1s-.3.7-.5 1.2c-.2.4-.5.8-1 1.2-.4.3-.9.6-1.5.8v2H7v5.2c0 .5.1.9.3 1.4.2.5.4.9.8 1.4.4.4.9.8 1.5 1.1.6.3 1.4.4 2.2.4.6 0 1.1-.1 1.7-.3s.9-.5 1.1-.7zm4.9-12.9V16c0 1-.3 1.8-1 2.5s-1.5 1-2.5 1H4.1c-1 0-1.8-.3-2.5-1S.6 17 .6 16V4.1c0-1 .3-1.8 1-2.5s1.5-1 2.5-1H16c1 0 1.8.3 2.5 1 .7.6 1 1.5 1 2.5z"/></svg>