<svg xmlns="https://www.w3.org/2000/svg" viewBox="0 0 20 20"><path d="M16.3 6.5c-.5.2-1 .3-1.5.4.6-.3.9-.8 1.2-1.4-.5.3-1.1.5-1.7.6-.5-.5-1.1-.8-1.9-.8-.7 0-1.3.3-1.8.8s-.8 1.1-.8 1.8c0 .2 0 .4.1.6-1.1-.1-2.1-.3-3-.8s-1.7-1.2-2.4-2c-.2.4-.3.9-.3 1.3 0 .9.4 1.7 1.1 2.2-.4 0-.8-.1-1.2-.3 0 .6.2 1.2.6 1.7.4.5.9.8 1.5.9-.2.1-.4.1-.6.1h-.5c.2.4.5.8.9 1.2s.9.5 1.5.5c-1 .7-2 1.1-3.2 1.1h-.6c1.2.8 2.5 1.2 4 1.2.9 0 1.8-.1 2.6-.4.8-.3 1.5-.7 2.1-1.2.6-.5 1.1-1.1 1.5-1.7.4-.6.7-1.3.9-2 .1-.8.2-1.5.2-2.2v-.3c.6-.4 1-.8 1.3-1.3zm3.2-2.4V16c0 1-.3 1.8-1 2.5s-1.5 1-2.5 1H4.1c-1 0-1.8-.3-2.5-1S.6 17 .6 16V4.1c0-1 .3-1.8 1-2.5s1.5-1 2.5-1H16c1 0 1.8.3 2.5 1 .7.6 1 1.5 1 2.5z"/></svg>