<svg xmlns="https://www.w3.org/2000/svg" viewBox="0 0 20 20"><path d="M16.5 6.8c.1-1.8-.6-2.7-2-2.7-1.9-.1-3.2 1-3.9 3.2.4-.2.7-.2 1-.2.7 0 1 .4.9 1.2 0 .5-.3 1.2-.9 2.1-.6.9-1 1.4-1.3 1.4-.4 0-.7-.7-1-2.1-.1-.6-.3-1.6-.5-3.3-.2-1.6-.9-2.3-2-2.2-.5.1-1.2.5-2 1.2l-1 .9-1 .9.6.8c.6-.4 1-.6 1.1-.6.5 0 .9.7 1.3 2.2.1.5.3 1.1.6 2s.4 1.6.6 2c.6 1.5 1.2 2.2 2 2.2 1.3 0 2.9-1.2 4.7-3.6 1.8-2.2 2.7-4.1 2.8-5.4zm3-2.7V16c0 1-.3 1.8-1 2.5s-1.5 1-2.5 1H4.1c-1 0-1.8-.3-2.5-1S.6 17 .6 16V4.1c0-1 .3-1.8 1-2.5s1.5-1 2.5-1H16c1 0 1.8.3 2.5 1 .7.6 1 1.5 1 2.5z"/></svg>