<svg xmlns="https://www.w3.org/2000/svg" viewBox="0 0 20 20"><path d="M10.2 14.4v1.3c0 2.1 0 3.1-.1 3.2-.1.2-.3.4-.5.4-.4.1-1-.1-1.9-.4-.9-.3-1.5-.6-1.7-.9-.1-.1-.2-.2-.2-.4v-.3c0-.1.1-.2.4-.5.2-.3.9-1 1.9-2.3 0 0 .2-.2.6-.7.1-.1.2-.2.4-.3h.5c.2.1.3.2.4.3.2.3.2.4.2.6zm-1.6-2.7c0 .4-.2.6-.6.7l-1.3.4c-1.9.6-3 .9-3.1.9-.2 0-.4-.1-.6-.4v-.7c-.1-.5-.1-1.1 0-1.8 0-.6.1-1 .3-1.3.1-.2.3-.4.6-.3.1 0 .8.3 2.1.8.5.2.9.4 1.2.5l.9.4c.2.1.3.2.4.3.1.2.1.3.1.5zm8.8 3.2c0 .4-.4 1-1 1.7s-1.1 1.2-1.4 1.3c-.3.1-.5.1-.7-.1-.1-.1-.7-1.1-1.9-3l-.5-.8c-.1-.1-.1-.3-.1-.5s.1-.3.2-.5c.2-.3.5-.4.9-.3 0 0 .4.1 1.3.4 1.4.5 2.3.7 2.6.8.3.1.4.2.5.2 0 .3.1.5.1.8zm-7.1-6.7c0 .7-.2 1.2-.6 1.3-.4.1-.8-.2-1.2-.8l-4-6.3c-.1-.2 0-.5.2-.7.3-.3 1-.6 2.2-.9s2-.4 2.4-.3c.3.1.5.2.5.5 0 0 .1 1.1.2 3.1s.2 3.4.3 4.1zm7 1.1c0 .3-.1.5-.3.6-.1.1-1.3.4-3.5.9-.5.1-.8.2-1 .2H12c-.2-.1-.3-.2-.4-.3-.2-.3-.2-.6 0-.9 0 0 .3-.4.8-1.1.9-1.2 1.4-1.9 1.6-2.2.2-.2.3-.4.4-.4.2-.1.4-.1.7 0 .3.2.8.6 1.3 1.4.5.8.8 1.4.9 1.8z"/></svg>