<svg xmlns="http://www.w3.org/2000/svg" viewBox="0 0 20 20"><path d="M12.2 13.7v2.2c0 .5-.1.7-.4.7-.2 0-.3-.1-.5-.2v-3.2c.2-.2.3-.2.5-.2s.4.2.4.7zm3.5 0v.5h-1v-.5c0-.5.2-.7.5-.7.4 0 .5.2.5.7zM5.5 11.4h1.1v-1H3.3v1h1.1v6h1.1v-6zm3 6h.9v-5.2h-.9v4c-.2.3-.4.4-.6.4-.1 0-.2-.1-.2-.2v-4.3h-.9v4.1c0 .3 0 .6.1.8.1.3.3.4.6.4s.7-.2 1.1-.6v.6zm4.6-1.5v-2.1c0-.5 0-.9-.1-1-.1-.4-.4-.6-.8-.6s-.7.2-1 .6v-2.3h-.9v7h.9V17c.3.4.6.6 1 .6s.6-.2.8-.6c.1-.3.1-.6.1-1.1zm3.6-.2v-.1h-1v.6c0 .3-.2.4-.4.4-.3 0-.5-.2-.5-.7V15h1.9v-1.1c0-.6-.1-1-.3-1.2-.3-.4-.7-.5-1.1-.5-.5 0-.9.2-1.1.5-.2.3-.3.7-.3 1.2v1.8c0 .6.1 1 .3 1.2.3.4.7.5 1.1.5.5 0 .9-.2 1.1-.6.1-.2.2-.4.2-.6.1.1.1-.1.1-.5zm-6.5-9.6V3.8c0-.5-.2-.7-.5-.7s-.4.3-.4.7V6c0 .5.2.7.5.7s.4-.1.4-.6zm7.7 7.9c0 1.7-.1 2.9-.3 3.7-.1.4-.3.8-.6 1s-.7.4-1.1.5c-1.3.1-3.3.2-5.9.2s-4.6-.1-5.9-.2c-.4 0-.8-.2-1.1-.5s-.5-.6-.6-1c-.2-.8-.3-2-.3-3.7 0-1.7.1-2.9.3-3.7.1-.4.3-.8.6-1 .3-.3.7-.5 1.1-.5 1.3-.2 3.3-.2 5.9-.2s4.6.1 5.9.2c.4 0 .8.2 1.1.5.3.3.5.6.6 1 .2.8.3 2 .3 3.7zM7.3.5h1.1L7.1 4.7v2.9H6V4.7c-.1-.5-.3-1.2-.6-2.2-.3-.7-.5-1.4-.7-2h1.1l.8 2.8.7-2.8zM11.2 4v1.9c0 .6-.1 1-.3 1.3-.3.4-.6.5-1.1.5-.5 0-.8-.2-1.1-.5-.2-.3-.3-.7-.3-1.3V4c0-.6.1-1 .3-1.2.3-.4.6-.5 1.1-.5.5 0 .9.2 1.1.5.2.3.3.7.3 1.2zm3.6-1.7v5.3h-1V7c-.4.4-.7.7-1.1.7-.3 0-.5-.1-.6-.4-.1-.2-.1-.4-.1-.8V2.3h1v4.3c0 .2.1.2.2.2.2 0 .4-.2.6-.5v-4h1z"/></svg>