<svg xmlns="https://www.w3.org/2000/svg" viewBox="0 0 20 20"><path d="M11.9 15v-1.9c0-.4-.1-.6-.4-.6-.1 0-.3.1-.4.2v2.8c.1.1.3.2.4.2.2-.1.4-.3.4-.7zm2.2-1.5h.9v-.4c0-.4-.1-.6-.4-.6-.3 0-.4.2-.4.6v.4zm-7-3.3v.9h-1v5.2h-.9v-5.2h-1v-.9h2.9zm2.5 1.6v4.5h-.9v-.5c-.3.4-.6.6-.9.6-.3 0-.4-.1-.5-.3 0-.1-.1-.4-.1-.7v-3.6H8V15.4c0 .1.1.2.2.2.2 0 .3-.1.5-.4v-3.5h.9zm3.1 1.4V15c0 .4 0 .7-.1.9-.1.3-.3.5-.7.5-.3 0-.6-.2-.8-.5v.4h-.8v-6.1h.8v2c.3-.3.5-.5.8-.5.3 0 .6.2.7.5.1.2.1.5.1 1zm3.1 1.6v.6c0 .2-.1.3-.2.5-.2.3-.6.5-1 .5s-.8-.2-1-.5c-.2-.2-.3-.6-.3-1.1v-1.6c0-.5.1-.8.2-1.1.2-.3.6-.5 1-.5s.7.2 1 .5c.2.2.3.6.3 1.1v.9h-1.6v.9c0 .4.1.6.4.6.2 0 .3-.1.4-.3v-.1-.5h.8zM10.2 4.6v1.9c0 .4-.1.6-.4.6s-.4-.2-.4-.6V4.6c0-.4.1-.6.4-.6s.4.1.4.6zm6.6 8.8c0-1.5-.1-2.5-.2-3.2-.1-.4-.3-.7-.5-.9-.3-.2-.6-.4-.9-.4-1.2-.2-2.9-.2-5.2-.2-2.3 0-4 .1-5.1.2-.3 0-.7.1-.9.4s-.4.5-.5.9c-.2.7-.2 1.8-.2 3.2 0 1.5.1 2.5.2 3.2 0 .4.2.7.5.9.3.2.6.4.9.4 1.1.1 2.8.2 5.1.2s4-.1 5.1-.2c.4 0 .7-.2.9-.4.3-.2.4-.5.5-.9.2-.7.3-1.8.3-3.2zM7.5 5.3l1.1-3.7h-1L7 4.1l-.6-2.4h-1l.3.9.3.8c.3.8.5 1.5.6 2v2.5h.9V5.3zm3.5 1V4.7c0-.5-.1-.8-.3-1.1-.2-.3-.6-.5-1-.5s-.7.2-1 .5c0 .3-.1.7-.1 1.1v1.6c0 .5.1.8.3 1.1.2.3.5.5 1 .5.4 0 .7-.2 1-.5.1-.2.1-.6.1-1.1zm2.3 1.5h.8V3.2h-.8v3.5c-.2.3-.4.4-.5.4-.1 0-.2-.1-.2-.2V3.2h-.8v3.6c0 .3 0 .5.1.7.1.2.3.3.5.3.3 0 .6-.2 1-.6v.6zm6.2-3.7V16c0 1-.3 1.8-1 2.5s-1.5 1-2.5 1H4.1c-1 0-1.8-.3-2.5-1S.6 17 .6 16V4.1c0-1 .3-1.8 1-2.5s1.5-1 2.5-1H16c1 0 1.8.3 2.5 1 .7.6 1 1.5 1 2.5z"/></svg>