<svg xmlns="http://www.w3.org/2000/svg" width="20" height="20" viewBox="0 0 20 20" class="fax"><path d="M5 6.1v12c0 1-.8 1.8-1.8 1.8H1.9c-1 0-1.8-.8-1.8-1.8v-12c0-1 .8-1.8 1.8-1.8h1.4c.9 0 1.7.8 1.7 1.8zm14.9 2.5v8.5c0 1.6-1.3 2.8-2.8 2.8H7.5c-1 0-1.8-.8-1.8-1.8v-17C5.7.5 6.2 0 6.8 0h7.4c.6 0 1.4.3 1.8.8l1.7 1.7c.4.4.8 1.2.8 1.8v1.8c.8.5 1.4 1.4 1.4 2.5zm-2.8-4.3h-1.8c-.6 0-1.1-.5-1.1-1.1V1.5h-7v5.7h9.9V4.3zM10.4 10c0-.2-.2-.4-.4-.4H8.6c-.2 0-.4.2-.4.4v1.4c0 .2.2.4.4.4H10c.2 0 .4-.2.4-.4V10zm0 2.8c0-.2-.2-.4-.4-.4H8.6c-.2 0-.4.2-.4.4v1.4c0 .2.2.4.4.4H10c.2 0 .4-.2.4-.4v-1.4zm0 2.9c0-.2-.2-.4-.4-.4H8.6c-.2 0-.4.2-.4.4v1.4c0 .2.2.4.4.4H10c.2 0 .4-.2.4-.4v-1.4zm2.8-5.7c0-.2-.2-.4-.4-.4h-1.4c-.2 0-.4.2-.4.4v1.4c0 .2.2.4.4.4h1.4c.2 0 .4-.2.4-.4V10zm0 2.8c0-.2-.2-.4-.4-.4h-1.4c-.2 0-.4.2-.4.4v1.4c0 .2.2.4.4.4h1.4c.2 0 .4-.2.4-.4v-1.4zm0 2.9c0-.2-.2-.4-.4-.4h-1.4c-.2 0-.4.2-.4.4v1.4c0 .2.2.4.4.4h1.4c.2 0 .4-.2.4-.4v-1.4zM16 10c0-.2-.2-.4-.4-.4h-1.4c-.2 0-.4.2-.4.4v1.4c0 .2.2.4.4.4h1.4c.2 0 .4-.2.4-.4V10zm0 2.8c0-.2-.2-.4-.4-.4h-1.4c-.2 0-.4.2-.4.4v1.4c0 .2.2.4.4.4h1.4c.2 0 .4-.2.4-.4v-1.4zm0 2.9c0-.2-.2-.4-.4-.4h-1.4c-.2 0-.4.2-.4.4v1.4c0 .2.2.4.4.4h1.4c.2 0 .4-.2.4-.4v-1.4z"/></svg>
