<svg xmlns="http://www.w3.org/2000/svg" width="20" height="20" viewBox="0 0 20 20" class="github"><path d="M19.8 16.1c0 2-1.6 3.7-3.7 3.7h-2.9c-.4 0-.8 0-.8-.6v-3.1c0-.9-.3-1.5-.7-1.8 2.2-.2 4.5-1.1 4.5-4.8 0-1.1-.4-2-1-2.6.1-.3.4-1.3-.1-2.6-.8-.3-2.7 1-2.7 1-.7-.3-1.6-.4-2.4-.4s-1.7.1-2.5.4c0 0-1.9-1.3-2.7-1-.5 1.3-.2 2.3 0 2.6-.6.7-1 1.6-1 2.6 0 3.8 2.3 4.6 4.5 4.8-.3.3-.5.7-.6 1.3-.6.3-2 .7-2.8-.8-.5-.9-1.5-1-1.5-1-1 0-.1.6-.1.6.6.3 1.1 1.4 1.1 1.4.4 1.8 3.2 1.2 3.2 1.2v2.2c0 .6-.4.6-.8.6H3.9c-2 0-3.7-1.6-3.7-3.7V3.9C.2 1.9 1.8.2 3.9.2h12.3c2 0 3.7 1.6 3.7 3.7v12.2h-.1z"/></svg>
