<svg xmlns="http://www.w3.org/2000/svg" width="20" height="20" viewBox="0 0 20 20" class="instagram"><path d="M19.9 17.3c0 1.4-1.1 2.5-2.5 2.5H2.7c-1.4 0-2.5-1.1-2.5-2.5V2.7C.2 1.3 1.3.2 2.7.2h14.7c1.4 0 2.5 1.1 2.5 2.5v14.6zm-2.3-8.8h-1.7c.2.5.3 1.1.3 1.7 0 3.3-2.7 5.9-6.1 5.9-3.4 0-6.1-2.7-6.1-5.9-.1-.6 0-1.2.1-1.7H2.3v8.3c0 .4.3.8.8.8h13.7c.4 0 .8-.3.8-.8V8.5zM10 6.1c-2.2 0-4 1.7-4 3.8 0 2.1 1.8 3.8 4 3.8s4-1.7 4-3.8c0-2.1-1.8-3.8-4-3.8zm7.6-2.9c0-.5-.4-.9-.9-.9h-2.2c-.5 0-.9.4-.9.9v2.1c0 .5.4.9.9.9h2.2c.5 0 .9-.4.9-.9V3.2z"/></svg>
