<svg xmlns="http://www.w3.org/2000/svg" viewBox="0 0 20 20" height="20" width="20" class="pdf"><path d="M18.4 6.2v12.6c0 .6-.5 1-1 1H2.7c-.6 0-1-.5-1-1V1.3c0-.6.5-1 1-1h9.8c.6 0 1.4.3 1.8.7l3.4 3.4c.4.4.7 1.2.7 1.8zm-1.4 1h-4.5c-.6 0-1-.5-1-1V1.6H3v16.8h14V7.2zm-4.7 5.3c.5-.1.9-.1 1.3-.1.7 0 1.7.1 1.9.5.1.1.1.3 0 .6 0 .2-.2.4-.8.4-.7.1-1.7-.2-2.7-.7-1.5.2-3.1.5-4.3.9C6.6 16 5.7 17 5.1 17c-.1 0-.2 0-.3-.1l-.3-.1-.1-.1c-.1-.1-.1-.2-.1-.4.1-.5.7-1.3 2.1-2.1.1-.1.2 0 .3.1.3-.6.7-1.3 1.2-2.2.5-1 .9-1.9 1.1-2.9-.3-1-.4-2.2-.2-3 .1-.2.2-.4.4-.4h.2c.2 0 .3.1.4.2.2.1.2.4.2.7v.5c0 .7 0 1.3-.2 2.1.4 1.1 1 2.1 1.6 2.6.2.2.6.4.9.6zm-5.7 2.2c-.8.6-1.3 1.4-1.5 1.7.3-.2.8-.6 1.5-1.7zm4.6-2l-.3-.3c-.5-.5-1-1.1-1.4-1.9-.2.7-.5 1.4-.9 2.2-.2.3-.3.6-.5.9.9-.4 2-.7 3.1-.9zM9.4 7.8c0-.2.1-.3.1-.5s.1-.3.1-.5v-.1-.1c0-.2-.1-.3-.1-.4-.2.5-.2 1-.1 1.6zm3.4-2h4.1l-.2-.4L13.3 2c-.1-.1-.3-.2-.4-.2v4zm.8 7.3c.5.2 1 .3 1.4.3h.2c-.1-.1-.4-.3-1.6-.3z" /></svg>
