<svg xmlns="http://www.w3.org/2000/svg" width="20" height="20" viewBox="0 0 20 20" class="pinterest-square"><path d="M19.9 3.8v12.3c0 2-1.7 3.7-3.7 3.7H6.9c.4-.6 1.1-1.6 1.4-2.7 0 0 .1-.4.7-2.7.3.7 1.3 1.2 2.4 1.2 3.1 0 5.3-2.9 5.3-6.7 0-2.9-2.5-5.6-6.2-5.6-4.6 0-7 3.3-7 6.1 0 1.7.6 3.2 2 3.7.2.1.4 0 .5-.2 0-.2.1-.6.2-.8.1-.2 0-.3-.1-.5-.4-.5-.6-1.1-.6-1.9C5.5 7.2 7.4 5 10.3 5c2.6 0 4.1 1.6 4.1 3.7 0 2.8-1.2 5.2-3.1 5.2-1 0-1.8-.8-1.5-1.9.3-1.2.9-2.6.9-3.5 0-.8-.4-1.5-1.3-1.5-1 0-1.9 1.1-1.9 2.5 0 0 0 .9.3 1.6-1.1 4.5-1.3 5.3-1.3 5.3-.3 1.2-.2 2.6-.1 3.3H3.8C1.8 19.7.1 18 .1 16V3.8C.1 1.8 1.8.1 3.8.1h12.3c2.1 0 3.8 1.7 3.8 3.7z"/></svg>
