<svg xmlns="http://www.w3.org/2000/svg" width="20" height="20" viewBox="0 0 20 20" class="slack"><path d="M19.9 11c0 .8-.4 1.3-1.1 1.5l-2 .7.7 2c.1.2.1.4.1.6 0 .9-.8 1.7-1.7 1.7-.7 0-1.4-.5-1.7-1.2l-.7-2-3.7 1.3.7 1.9c.1.2.1.4.1.6 0 .9-.8 1.7-1.7 1.7-.7 0-1.4-.5-1.6-1.2l-.7-1.9-1.8.6c-.2.1-.4.1-.6.1-1 0-1.7-.7-1.7-1.7 0-.7.5-1.4 1.2-1.6l1.9-.6-1.4-3.7-1.9.6c-.2.1-.4.1-.6.1-1 0-1.7-.7-1.7-1.7 0-.7.5-1.4 1.2-1.6l1.9-.6-.6-1.9c0-.1-.1-.3-.1-.5 0-.9.8-1.7 1.7-1.7.7 0 1.4.5 1.6 1.2l.6 1.9L10 4.4l-.5-2c-.1-.2-.1-.4-.1-.6 0-.9.8-1.7 1.7-1.7.7 0 1.4.5 1.7 1.2l.6 1.9 1.9-.7c.2 0 .3-.1.5-.1.9 0 1.7.7 1.7 1.6 0 .7-.6 1.4-1.2 1.6l-1.9.6 1.2 3.8 1.9-.7c.2-.1.4-.1.5-.1 1.1.1 1.9.8 1.9 1.8zm-7.5.2l-1.2-3.7-3.7 1.2 1.2 3.7 3.7-1.2z"/></svg>
