<svg xmlns="http://www.w3.org/2000/svg" width="20" height="20" viewBox="0 0 20 20" class="twitter-square"><path d="M19.9 16.2c0 2-1.7 3.7-3.7 3.7H3.8c-2 0-3.7-1.7-3.7-3.7V3.8C.1 1.8 1.8.1 3.8.1h12.4c2 0 3.7 1.7 3.7 3.7v12.4zM15 6.8c.6-.3 1-.9 1.2-1.5-.5.3-1.1.5-1.7.7-.5-.5-1.2-.8-2-.8-1.5 0-2.7 1.2-2.7 2.7 0 .2 0 .4.1.6-2.3-.2-4.3-1.3-5.6-3-.2.4-.4.9-.4 1.4 0 .9.4 1.8 1.2 2.3-.4 0-.9-.2-1.3-.4 0 1.3 1 2.4 2.2 2.7-.2.1-.4.1-.7.1-.2 0-.3 0-.5-.1.3 1.1 1.3 1.9 2.5 1.9-.9.7-2.1 1.2-3.4 1.2h-.6c1.2.8 2.6 1.2 4.1 1.2 5 0 7.7-4.1 7.7-7.7v-.3c.5-.4 1-.9 1.4-1.4-.4.1-.9.3-1.5.4z"/></svg>
