<svg xmlns="http://www.w3.org/2000/svg" width="20" height="20" viewBox="0 0 20 20" class="vimeo-square"><path d="M19.9 16.2c0 2.1-1.7 3.7-3.7 3.7H3.8c-2.1 0-3.7-1.7-3.7-3.7V3.8C.1 1.8 1.8.1 3.8.1h12.4c2.1 0 3.7 1.7 3.7 3.7v12.4zM14.7 3.8c-2-.1-3.3 1.1-4 3.4.3-.2.7-.3 1-.3.7 0 1 .4 1 1.2 0 .5-.4 1.2-1 2.2-.6 1-1.1 1.4-1.4 1.4-.4 0-.7-.7-1.1-2.2 0-.4-.2-1.5-.5-3.2-.2-1.6-.9-2.4-2-2.3-.5 0-1.2.5-2.2 1.3-.6.6-1.3 1.2-2 1.8l.6.9c.6-.4 1-.7 1.1-.7.5 0 1 .8 1.4 2.3l1.2 4.2c.6 1.5 1.3 2.3 2.1 2.3 1.3 0 3-1.3 4.9-3.8 1.9-2.4 2.9-4.3 2.9-5.7.1-1.8-.6-2.7-2-2.8z"/></svg>
