<svg xmlns="http://www.w3.org/2000/svg" width="20" height="20" viewBox="0 0 20 20" class="youtube"><path d="M17.9 18c-.2.9-.9 1.5-1.8 1.6-2 .2-4.1.2-6.1.2s-4.1 0-6.1-.2c-.9-.1-1.6-.7-1.8-1.6-.3-1.2-.3-2.6-.3-3.9 0-1.3 0-2.6.3-3.9.2-.7.9-1.4 1.8-1.5 2-.2 4.1-.2 6.1-.2s4.1 0 6.1.2c.8.1 1.6.7 1.8 1.6.3 1.2.3 2.6.3 3.9 0 1.3-.1 2.6-.3 3.8zM6.5 11.4v-1H3.1v1h1.2v6.3h1.1v-6.3h1.1zM8.3.1L7 4.5v3H5.9v-3c-.1-.5-.4-1.3-.7-2.3-.3-.7-.5-1.4-.7-2.1h1.2L6.4 3 7.1.1h1.2zm1.2 17.6v-5.4h-1v4.2c-.2.3-.4.5-.6.5-.1 0-.2-.1-.2-.2v-4.4h-1v4.3c0 .4 0 .6.1.8.1.3.3.4.6.4.4 0 .7-.2 1.1-.7v.6h1zm1.7-12c0 .6-.1 1-.3 1.3-.3.4-.7.6-1.2.6-.4 0-.8-.2-1.1-.6-.2-.3-.3-.7-.3-1.3V3.8c0-.6.1-1 .3-1.3.3-.4.7-.6 1.2-.6s.9.2 1.2.6c.2.3.3.7.3 1.3v1.9zm-1-2.1c0-.5-.1-.8-.5-.8-.3 0-.5.3-.5.8v2.3c0 .5.2.8.5.8s.5-.3.5-.8V3.6zm3 10.3c0-.5 0-.9-.1-1.1-.1-.4-.4-.6-.8-.6s-.7.2-1 .6v-2.4h-1v7.3h1v-.5c.3.4.7.6 1 .6.4 0 .7-.2.8-.6.1-.2.1-.6.1-1.1v-2.2zm-1 2.3c0 .5-.1.7-.4.7-.2 0-.3-.1-.5-.2v-3.3c.2-.2.3-.2.5-.2.3 0 .4.3.4.7v2.3zm2.7-8.7h-1v-.6c-.4.5-.8.7-1.1.7-.3 0-.6-.1-.6-.4-.1-.2-.1-.4-.1-.8V2h1v4.4c0 .2.1.2.2.2.2 0 .4-.2.6-.5V2h1v5.5zm2 8.3h-1v.7c-.1.3-.2.4-.4.4-.3 0-.5-.3-.5-.8v-1h2V14c0-.6-.1-1-.3-1.3-.3-.4-.7-.6-1.2-.6s-.9.2-1.2.6c-.2.3-.3.8-.3 1.3v1.9c0 .6.1 1 .3 1.3.3.4.7.6 1.2.6s.9-.2 1.2-.6c.1-.2.2-.4.2-.6v-.8zm-.9-1.4h-1v-.5c0-.5.2-.7.5-.7s.5.3.5.7v.5z"/></svg>
