<?xml version="1.0" encoding="utf-8"?>
<!-- Generator: Adobe Illustrator 21.0.0, SVG Export Plug-In . SVG Version: 6.00 Build 0)  -->
<!DOCTYPE svg PUBLIC "-//W3C//DTD SVG 1.1//EN" "http://www.w3.org/Graphics/SVG/1.1/DTD/svg11.dtd">
<svg version="1.1" id="Layer_1" xmlns="http://www.w3.org/2000/svg" xmlns:xlink="http://www.w3.org/1999/xlink" x="0px" y="0px"
	 viewBox="0 0 20 20" style="enable-background:new 0 0 20 20;" xml:space="preserve">
<path d="M2.8,12.9l6.4,4.3v-3.8L5.6,11L2.8,12.9z M2.1,11.4l2-1.4l-2-1.4V11.4z M10.8,17.2l6.4-4.3L14.4,11l-3.5,2.4V17.2z M10,11.9
	l2.9-1.9L10,8.1L7.1,10L10,11.9z M5.6,9l3.5-2.4V2.8L2.8,7.1L5.6,9z M15.8,10l2,1.4V8.6L15.8,10z M14.4,9l2.9-1.9l-6.4-4.3v3.8
	L14.4,9z M19.5,7.1v5.8c0,0.3-0.1,0.5-0.4,0.7l-8.7,5.8c-0.1,0.1-0.3,0.1-0.5,0.1s-0.3,0-0.5-0.1l-8.7-5.8c-0.2-0.2-0.4-0.4-0.4-0.7
	V7.1c0-0.3,0.1-0.5,0.4-0.7l8.7-5.8C9.7,0.5,9.8,0.5,10,0.5s0.3,0,0.5,0.1l8.7,5.8C19.4,6.6,19.5,6.8,19.5,7.1z"/>
</svg>
