<?xml version="1.0" encoding="utf-8"?>
<!-- Generator: Adobe Illustrator 21.0.0, SVG Export Plug-In . SVG Version: 6.00 Build 0)  -->
<!DOCTYPE svg PUBLIC "-//W3C//DTD SVG 1.1//EN" "http://www.w3.org/Graphics/SVG/1.1/DTD/svg11.dtd">
<svg version="1.1" id="Layer_1" xmlns="http://www.w3.org/2000/svg" xmlns:xlink="http://www.w3.org/1999/xlink" x="0px" y="0px"
	 viewBox="0 0 20 20" style="enable-background:new 0 0 20 20;" xml:space="preserve">
<path d="M18.7,15.9V10H10V1.3H4.1c-0.8,0-1.4,0.3-2,0.8s-0.8,1.2-0.8,2V10H10v8.7h5.9c0.8,0,1.4-0.3,2-0.8
	C18.4,17.4,18.7,16.7,18.7,15.9z M19.5,4.1v11.9c0,1-0.3,1.8-1,2.5c-0.7,0.7-1.5,1-2.5,1H4.1c-1,0-1.8-0.3-2.5-1
	c-0.7-0.7-1-1.5-1-2.5V4.1c0-1,0.3-1.8,1-2.5s1.5-1,2.5-1h11.9c1,0,1.8,0.3,2.5,1C19.2,2.2,19.5,3.1,19.5,4.1z"/>
</svg>
