<?xml version="1.0" encoding="utf-8"?>
<!-- Generator: Adobe Illustrator 21.0.0, SVG Export Plug-In . SVG Version: 6.00 Build 0)  -->
<!DOCTYPE svg PUBLIC "-//W3C//DTD SVG 1.1//EN" "https://www.w3.org/Graphics/SVG/1.1/DTD/svg11.dtd">
<svg version="1.1" id="Layer_1" xmlns="https://www.w3.org/2000/svg" xmlns:xlink="https://www.w3.org/1999/xlink" x="0px" y="0px"
	 viewBox="0 0 20 20" style="enable-background:new 0 0 20 20;" xml:space="preserve">
<path d="M3.6,4.6c0.5,0,0.9,0.2,1.2,0.5c0.3,0.3,0.5,0.7,0.5,1.2v11.5c0,0.5-0.2,0.9-0.5,1.2c-0.3,0.3-0.7,0.5-1.2,0.5H2.2
	c-0.5,0-0.9-0.2-1.2-0.5c-0.3-0.3-0.5-0.7-0.5-1.2V6.3c0-0.5,0.2-0.9,0.5-1.2c0.3-0.3,0.7-0.5,1.2-0.5H3.6z M18.1,6.3
	c0.4,0.2,0.7,0.6,1,1s0.4,0.9,0.4,1.4v8.1c0,0.7-0.3,1.4-0.8,1.9s-1.2,0.8-1.9,0.8H7.6c-0.5,0-0.9-0.2-1.2-0.5
	c-0.3-0.3-0.5-0.7-0.5-1.2V1.5C5.9,1.2,6,1,6.2,0.8c0.2-0.2,0.4-0.3,0.7-0.3h7.1c0.3,0,0.6,0.1,0.9,0.2s0.6,0.3,0.8,0.5l1.6,1.6
	c0.2,0.2,0.4,0.5,0.5,0.8s0.2,0.7,0.2,0.9V6.3z M10.3,16.8v-1.4c0-0.1,0-0.2-0.1-0.2c-0.1-0.1-0.1-0.1-0.2-0.1H8.6
	c-0.1,0-0.2,0-0.2,0.1c-0.1,0.1-0.1,0.1-0.1,0.2v1.4c0,0.1,0,0.2,0.1,0.2s0.1,0.1,0.2,0.1H10c0.1,0,0.2,0,0.2-0.1
	C10.3,17,10.3,16.9,10.3,16.8z M10.3,14.1v-1.4c0-0.1,0-0.2-0.1-0.2c-0.1-0.1-0.1-0.1-0.2-0.1H8.6c-0.1,0-0.2,0-0.2,0.1
	c-0.1,0.1-0.1,0.1-0.1,0.2v1.4c0,0.1,0,0.2,0.1,0.2c0.1,0.1,0.1,0.1,0.2,0.1H10c0.1,0,0.2,0,0.2-0.1C10.3,14.3,10.3,14.2,10.3,14.1z
	 M10.3,11.4V10c0-0.1,0-0.2-0.1-0.2c-0.1-0.1-0.1-0.1-0.2-0.1H8.6c-0.1,0-0.2,0-0.2,0.1C8.3,9.8,8.3,9.9,8.3,10v1.4
	c0,0.1,0,0.2,0.1,0.2s0.1,0.1,0.2,0.1H10c0.1,0,0.2,0,0.2-0.1C10.3,11.5,10.3,11.5,10.3,11.4z M13.1,16.8v-1.4c0-0.1,0-0.2-0.1-0.2
	c-0.1-0.1-0.1-0.1-0.2-0.1h-1.4c-0.1,0-0.2,0-0.2,0.1C11,15.2,11,15.3,11,15.4v1.4c0,0.1,0,0.2,0.1,0.2s0.1,0.1,0.2,0.1h1.4
	c0.1,0,0.2,0,0.2-0.1C13,17,13.1,16.9,13.1,16.8z M13.1,14.1v-1.4c0-0.1,0-0.2-0.1-0.2c-0.1-0.1-0.1-0.1-0.2-0.1h-1.4
	c-0.1,0-0.2,0-0.2,0.1C11,12.5,11,12.6,11,12.7v1.4c0,0.1,0,0.2,0.1,0.2c0.1,0.1,0.1,0.1,0.2,0.1h1.4c0.1,0,0.2,0,0.2-0.1
	C13,14.3,13.1,14.2,13.1,14.1z M13.1,11.4V10c0-0.1,0-0.2-0.1-0.2c-0.1-0.1-0.1-0.1-0.2-0.1h-1.4c-0.1,0-0.2,0-0.2,0.1
	C11,9.8,11,9.9,11,10v1.4c0,0.1,0,0.2,0.1,0.2s0.1,0.1,0.2,0.1h1.4c0.1,0,0.2,0,0.2-0.1C13,11.5,13.1,11.5,13.1,11.4z M15.8,16.8
	v-1.4c0-0.1,0-0.2-0.1-0.2c-0.1-0.1-0.1-0.1-0.2-0.1h-1.4c-0.1,0-0.2,0-0.2,0.1c-0.1,0.1-0.1,0.1-0.1,0.2v1.4c0,0.1,0,0.2,0.1,0.2
	s0.1,0.1,0.2,0.1h1.4c0.1,0,0.2,0,0.2-0.1S15.8,16.9,15.8,16.8z M15.8,14.1v-1.4c0-0.1,0-0.2-0.1-0.2c-0.1-0.1-0.1-0.1-0.2-0.1h-1.4
	c-0.1,0-0.2,0-0.2,0.1c-0.1,0.1-0.1,0.1-0.1,0.2v1.4c0,0.1,0,0.2,0.1,0.2c0.1,0.1,0.1,0.1,0.2,0.1h1.4c0.1,0,0.2,0,0.2-0.1
	C15.7,14.3,15.8,14.2,15.8,14.1z M15.8,11.4V10c0-0.1,0-0.2-0.1-0.2c-0.1-0.1-0.1-0.1-0.2-0.1h-1.4c-0.1,0-0.2,0-0.2,0.1
	c-0.1,0.1-0.1,0.1-0.1,0.2v1.4c0,0.1,0,0.2,0.1,0.2s0.1,0.1,0.2,0.1h1.4c0.1,0,0.2,0,0.2-0.1S15.8,11.5,15.8,11.4z M16.8,7.3V4.6
	h-1.7c-0.3,0-0.5-0.1-0.7-0.3c-0.2-0.2-0.3-0.4-0.3-0.7V1.9H7.3v5.4H16.8z"/>
</svg>
