<?xml version="1.0" encoding="utf-8"?>
<!-- Generator: Adobe Illustrator 21.0.0, SVG Export Plug-In . SVG Version: 6.00 Build 0)  -->
<!DOCTYPE svg PUBLIC "-//W3C//DTD SVG 1.1//EN" "http://www.w3.org/Graphics/SVG/1.1/DTD/svg11.dtd">
<svg version="1.1" id="Layer_1" xmlns="http://www.w3.org/2000/svg" xmlns:xlink="http://www.w3.org/1999/xlink" x="0px" y="0px"
	 viewBox="0 0 20 20" style="enable-background:new 0 0 20 20;" xml:space="preserve">
<path d="M17.4,4.5c0.2,0.2,0.4,0.5,0.5,0.8s0.2,0.7,0.2,0.9v12.2c0,0.3-0.1,0.5-0.3,0.7s-0.4,0.3-0.7,0.3H2.9
	c-0.3,0-0.5-0.1-0.7-0.3s-0.3-0.4-0.3-0.7v-17c0-0.3,0.1-0.5,0.3-0.7s0.4-0.3,0.7-0.3h9.5c0.3,0,0.6,0.1,0.9,0.2s0.6,0.3,0.8,0.5
	L17.4,4.5z M12.7,1.9v4h4c-0.1-0.2-0.1-0.3-0.2-0.4l-3.3-3.3C13.1,2.1,12.9,2,12.7,1.9z M16.8,18.1V7.2h-4.4c-0.3,0-0.5-0.1-0.7-0.3
	s-0.3-0.4-0.3-0.7V1.8H3.3v16.3L16.8,18.1L16.8,18.1z M6.3,15.7v1.1h3.5v-1.1h-1v-1.8h1.5c0.5,0,1-0.1,1.3-0.2
	c0.5-0.2,0.8-0.5,1.1-0.9c0.3-0.5,0.4-1,0.4-1.5c0-0.6-0.1-1.1-0.4-1.5c-0.3-0.4-0.6-0.7-1.1-0.9c-0.3-0.1-0.8-0.2-1.4-0.2H6.3v1.1
	h1v5.9L6.3,15.7L6.3,15.7z M10,12.7H8.7V9.9H10c0.4,0,0.7,0.1,0.9,0.2c0.4,0.2,0.6,0.6,0.6,1.2c0,0.6-0.2,1.1-0.7,1.3
	C10.6,12.6,10.3,12.7,10,12.7z"/>
</svg>
