<?xml version="1.0" encoding="utf-8"?>
<!-- Generator: Adobe Illustrator 21.0.0, SVG Export Plug-In . SVG Version: 6.00 Build 0)  -->
<!DOCTYPE svg PUBLIC "-//W3C//DTD SVG 1.1//EN" "http://www.w3.org/Graphics/SVG/1.1/DTD/svg11.dtd">
<svg version="1.1" id="Layer_1" xmlns="http://www.w3.org/2000/svg" xmlns:xlink="http://www.w3.org/1999/xlink" x="0px" y="0px"
	 viewBox="0 0 20 20" style="enable-background:new 0 0 20 20;" xml:space="preserve">
<path d="M17.4,4.5c0.2,0.2,0.4,0.5,0.5,0.8c0.1,0.3,0.2,0.7,0.2,0.9v12.2c0,0.3-0.1,0.5-0.3,0.7s-0.4,0.3-0.7,0.3H2.9
	c-0.3,0-0.5-0.1-0.7-0.3s-0.3-0.4-0.3-0.7v-17C1.9,1.2,2,1,2.2,0.8s0.4-0.3,0.7-0.3h9.5c0.3,0,0.6,0.1,0.9,0.2s0.6,0.3,0.8,0.5
	L17.4,4.5z M12.7,1.9v4h4c-0.1-0.2-0.1-0.3-0.2-0.4l-3.3-3.3C13.1,2.1,12.9,2,12.7,1.9z M16.8,18.1V7.3h-4.4c-0.3,0-0.5-0.1-0.7-0.3
	c-0.2-0.2-0.3-0.4-0.3-0.7V1.9H3.2v16.3H16.8z M15.4,13.4v3.4H4.6v-2l2-2L8,14.1L12,10L15.4,13.4z M6.6,11.4c-0.6,0-1-0.2-1.4-0.6
	c-0.4-0.4-0.6-0.9-0.6-1.4c0-0.6,0.2-1,0.6-1.4C5.6,7.5,6,7.3,6.6,7.3s1,0.2,1.4,0.6c0.4,0.4,0.6,0.9,0.6,1.4c0,0.6-0.2,1-0.6,1.4
	C7.7,11.2,7.2,11.4,6.6,11.4z"/>
</svg>
