<?xml version="1.0" encoding="utf-8"?>
<!-- Generator: Adobe Illustrator 21.0.0, SVG Export Plug-In . SVG Version: 6.00 Build 0)  -->
<!DOCTYPE svg PUBLIC "-//W3C//DTD SVG 1.1//EN" "https://www.w3.org/Graphics/SVG/1.1/DTD/svg11.dtd">
<svg version="1.1" id="Layer_1" xmlns="https://www.w3.org/2000/svg" xmlns:xlink="https://www.w3.org/1999/xlink" x="0px" y="0px"
	 viewBox="0 0 20 20" style="enable-background:new 0 0 20 20;" xml:space="preserve">
<path d="M17.4,4.5c0.2,0.2,0.4,0.5,0.5,0.8c0.1,0.3,0.2,0.7,0.2,0.9v12.2c0,0.3-0.1,0.5-0.3,0.7s-0.4,0.3-0.7,0.3H2.9
	c-0.3,0-0.5-0.1-0.7-0.3s-0.3-0.4-0.3-0.7v-17C1.9,1.2,2,1,2.2,0.8s0.4-0.3,0.7-0.3h9.5c0.3,0,0.6,0.1,0.9,0.2s0.6,0.3,0.8,0.5
	L17.4,4.5z M12.7,1.9v4h4c-0.1-0.2-0.1-0.3-0.2-0.4l-3.3-3.3C13.1,2.1,12.9,2,12.7,1.9z M16.8,18.1V7.3h-4.4c-0.3,0-0.5-0.1-0.7-0.3
	c-0.2-0.2-0.3-0.4-0.3-0.7V1.9H3.2v16.3H16.8z M11.3,11.9c0.2,0.2,0.5,0.4,0.9,0.6c0.4,0,0.8-0.1,1.2-0.1c1,0,1.7,0.2,1.9,0.5
	c0.1,0.2,0.1,0.3,0,0.6c0,0,0,0,0,0l0,0v0c0,0.3-0.3,0.4-0.8,0.4c-0.3,0-0.7-0.1-1.2-0.2c-0.5-0.1-0.9-0.3-1.4-0.6
	C10.4,13.3,9,13.6,7.8,14c-1.1,1.9-1.9,2.8-2.6,2.8c-0.1,0-0.2,0-0.3-0.1l-0.3-0.1c0,0,0,0-0.1-0.1c-0.1-0.1-0.1-0.2-0.1-0.4
	c0.1-0.3,0.3-0.6,0.6-1c0.3-0.4,0.8-0.7,1.4-1c0.1-0.1,0.2,0,0.2,0.1c0,0,0,0,0,0C7.2,13.7,7.6,13,8,12.2c0.5-1,0.8-1.9,1.1-2.8
	C8.9,8.8,8.8,8.3,8.8,7.7c0-0.5,0-1,0.1-1.4C8.9,6.1,9,5.9,9.3,5.9h0.2c0.2,0,0.3,0.1,0.4,0.2C10,6.2,10,6.5,10,6.8c0,0,0,0.1,0,0.1
	c0,0,0,0,0,0.1v0.3c0,0.9-0.1,1.5-0.1,2C10.2,10.5,10.7,11.3,11.3,11.9z M5.2,16.2c0.4-0.2,0.9-0.7,1.5-1.7
	c-0.4,0.3-0.7,0.6-0.9,0.9C5.5,15.7,5.3,16,5.2,16.2z M9.4,6.5c-0.1,0.3-0.1,0.8,0,1.4c0,0,0-0.2,0.1-0.5c0,0,0-0.2,0.1-0.5
	c0,0,0-0.1,0-0.1c0,0,0,0,0,0s0,0,0,0c0,0,0,0,0,0C9.6,6.6,9.5,6.5,9.4,6.5C9.5,6.4,9.5,6.4,9.4,6.5L9.4,6.5z M8.1,13.5
	c1-0.4,2-0.7,3-0.9c0,0-0.1,0-0.1-0.1c-0.1-0.1-0.1-0.1-0.2-0.1c-0.5-0.5-1-1.1-1.3-1.9c-0.2,0.6-0.5,1.3-0.9,2.1
	C8.4,13,8.2,13.3,8.1,13.5z M15,13.3c-0.2-0.2-0.7-0.3-1.5-0.3c0.5,0.2,1,0.3,1.3,0.3C14.9,13.3,15,13.3,15,13.3
	C15,13.3,15,13.3,15,13.3z"/>
</svg>
