<?xml version="1.0" encoding="utf-8"?>
<!-- Generator: Adobe Illustrator 21.0.0, SVG Export Plug-In . SVG Version: 6.00 Build 0)  -->
<!DOCTYPE svg PUBLIC "-//W3C//DTD SVG 1.1//EN" "https://www.w3.org/Graphics/SVG/1.1/DTD/svg11.dtd">
<svg version="1.1" id="Layer_1" xmlns="https://www.w3.org/2000/svg" xmlns:xlink="https://www.w3.org/1999/xlink" x="0px" y="0px"
	 viewBox="0 0 20 20" style="enable-background:new 0 0 20 20;" xml:space="preserve">
<path d="M17.4,4.5c0.2,0.2,0.4,0.5,0.5,0.8c0.1,0.3,0.2,0.7,0.2,0.9v12.2c0,0.3-0.1,0.5-0.3,0.7s-0.4,0.3-0.7,0.3H2.9
	c-0.3,0-0.5-0.1-0.7-0.3s-0.3-0.4-0.3-0.7v-17C1.9,1.2,2,1,2.2,0.8s0.4-0.3,0.7-0.3h9.5c0.3,0,0.6,0.1,0.9,0.2s0.6,0.3,0.8,0.5
	L17.4,4.5z M12.7,1.9v4h4c-0.1-0.2-0.1-0.3-0.2-0.4l-3.3-3.3C13.1,2.1,12.9,2,12.7,1.9z M16.8,18.1V7.3h-4.4c-0.3,0-0.5-0.1-0.7-0.3
	c-0.2-0.2-0.3-0.4-0.3-0.7V1.9H3.2v16.3H16.8z M6.9,8.6C7,8.6,7.1,8.5,7.2,8.5c0.1,0,0.2,0,0.3,0.1L8,9C8,9,8.1,9.1,8.1,9.2
	c0,0.1,0,0.2-0.1,0.3L6.1,12L8,14.6c0.1,0.1,0.1,0.2,0.1,0.3C8.1,15,8,15,8,15.1l-0.5,0.4c-0.1,0.1-0.2,0.1-0.3,0.1
	c-0.1,0-0.2-0.1-0.2-0.1l-2.4-3.2c-0.1-0.1-0.1-0.3,0-0.4L6.9,8.6z M15.4,11.8c0.1,0.1,0.1,0.3,0,0.4l-2.4,3.2
	c-0.1,0.1-0.1,0.1-0.2,0.1s-0.2,0-0.3-0.1L12,15.1C12,15,11.9,15,11.9,14.9c0-0.1,0-0.2,0.1-0.3l1.9-2.6L12,9.5
	c-0.1-0.1-0.1-0.2-0.1-0.3C11.9,9.1,12,9,12,9l0.5-0.4c0.1-0.1,0.2-0.1,0.3-0.1s0.2,0.1,0.2,0.1L15.4,11.8z M8.9,16.7
	c-0.1,0-0.2-0.1-0.2-0.1c-0.1-0.1-0.1-0.2-0.1-0.3l1.5-8.8c0-0.1,0.1-0.2,0.1-0.2c0.1-0.1,0.2-0.1,0.3-0.1l0.7,0.1
	c0.1,0,0.2,0.1,0.2,0.1c0.1,0.1,0.1,0.2,0.1,0.3l-1.5,8.8c0,0.1-0.1,0.2-0.1,0.2c-0.1,0.1-0.2,0.1-0.3,0.1L8.9,16.7z"/>
</svg>
