<?xml version="1.0" encoding="utf-8"?>
<!-- Generator: Adobe Illustrator 21.0.0, SVG Export Plug-In . SVG Version: 6.00 Build 0)  -->
<!DOCTYPE svg PUBLIC "-//W3C//DTD SVG 1.1//EN" "http://www.w3.org/Graphics/SVG/1.1/DTD/svg11.dtd">
<svg version="1.1" id="Layer_1" xmlns="http://www.w3.org/2000/svg" xmlns:xlink="http://www.w3.org/1999/xlink" x="0px" y="0px"
	 viewBox="0 0 20 20" style="enable-background:new 0 0 20 20;" xml:space="preserve">
<path d="M17.4,4.5c0.2,0.2,0.4,0.5,0.5,0.8c0.1,0.3,0.2,0.7,0.2,0.9v12.2c0,0.3-0.1,0.5-0.3,0.7s-0.4,0.3-0.7,0.3H2.9
	c-0.3,0-0.5-0.1-0.7-0.3s-0.3-0.4-0.3-0.7v-17C1.9,1.2,2,1,2.2,0.8s0.4-0.3,0.7-0.3h9.5c0.3,0,0.6,0.1,0.9,0.2s0.6,0.3,0.8,0.5
	L17.4,4.5z M12.7,1.9v4h4c-0.1-0.2-0.1-0.3-0.2-0.4l-3.3-3.3C13.1,2.1,12.9,2,12.7,1.9z M16.8,18.1V7.3h-4.4c-0.3,0-0.5-0.1-0.7-0.3
	c-0.2-0.2-0.3-0.4-0.3-0.7V1.9H3.2v16.3H16.8z M8.4,9.5c0.1,0.1,0.2,0.2,0.2,0.3v5.8c0,0.2-0.1,0.3-0.2,0.3c-0.1,0-0.1,0-0.1,0
	c-0.1,0-0.2,0-0.2-0.1l-1.8-1.8H4.9c-0.1,0-0.2,0-0.2-0.1c-0.1-0.1-0.1-0.1-0.1-0.2v-2c0-0.1,0-0.2,0.1-0.2c0.1-0.1,0.1-0.1,0.2-0.1
	h1.4l1.8-1.8C8.2,9.5,8.3,9.5,8.4,9.5z M12.9,16.8c0.2,0,0.4-0.1,0.5-0.3c0.9-1.1,1.4-2.4,1.4-3.8s-0.5-2.7-1.4-3.8
	c-0.1-0.1-0.3-0.2-0.5-0.3c-0.2,0-0.4,0-0.5,0.1c-0.1,0.1-0.2,0.3-0.2,0.5s0,0.4,0.2,0.5c0.7,0.9,1.1,1.9,1.1,3s-0.4,2.1-1.1,3
	c-0.1,0.1-0.2,0.3-0.2,0.5s0.1,0.3,0.2,0.5C12.6,16.8,12.7,16.8,12.9,16.8z M10.6,15.2c0.2,0,0.4-0.1,0.5-0.2
	c0.6-0.7,0.9-1.4,0.9-2.3s-0.3-1.7-0.9-2.3c-0.1-0.1-0.3-0.2-0.5-0.2s-0.4,0.1-0.5,0.2c-0.1,0.1-0.2,0.3-0.2,0.5
	c0,0.2,0.1,0.4,0.2,0.5c0.4,0.4,0.6,0.9,0.6,1.4c0,0.5-0.2,1-0.6,1.4c-0.1,0.1-0.2,0.3-0.2,0.5c0,0.2,0.1,0.3,0.2,0.5
	C10.3,15.2,10.4,15.2,10.6,15.2z"/>
</svg>
