<?xml version="1.0" encoding="utf-8"?>
<!-- Generator: Adobe Illustrator 21.0.0, SVG Export Plug-In . SVG Version: 6.00 Build 0)  -->
<!DOCTYPE svg PUBLIC "-//W3C//DTD SVG 1.1//EN" "https://www.w3.org/Graphics/SVG/1.1/DTD/svg11.dtd">
<svg version="1.1" id="Layer_1" xmlns="https://www.w3.org/2000/svg" xmlns:xlink="https://www.w3.org/1999/xlink" x="0px" y="0px"
	 viewBox="0 0 20 20" style="enable-background:new 0 0 20 20;" xml:space="preserve">
<path d="M17.4,4.5c0.2,0.2,0.4,0.5,0.5,0.8c0.1,0.3,0.2,0.7,0.2,0.9v12.2c0,0.3-0.1,0.5-0.3,0.7s-0.4,0.3-0.7,0.3H2.9
	c-0.3,0-0.5-0.1-0.7-0.3s-0.3-0.4-0.3-0.7v-17C1.9,1.2,2,1,2.2,0.8s0.4-0.3,0.7-0.3h9.5c0.3,0,0.6,0.1,0.9,0.2s0.6,0.3,0.8,0.5
	L17.4,4.5z M12.7,1.9v4h4c-0.1-0.2-0.1-0.3-0.2-0.4l-3.3-3.3C13.1,2.1,12.9,2,12.7,1.9z M16.8,18.1V7.3h-4.4c-0.3,0-0.5-0.1-0.7-0.3
	c-0.2-0.2-0.3-0.4-0.3-0.7V1.9H3.2v16.3H16.8z M6.4,15.7v1.1h3v-1.1H8.6L9.7,14c0,0,0.1-0.1,0.1-0.2s0.1-0.1,0.1-0.1c0,0,0,0,0,0h0
	c0,0,0,0.1,0.1,0.1c0,0,0,0.1,0,0.1c0,0,0,0.1,0.1,0.1c0,0,0,0.1,0.1,0.1l1.1,1.7h-0.8v1.1h3.1v-1.1h-0.7l-2-2.9l2.1-3h0.7V8.6h-3
	v1.1h0.8l-1.1,1.7c0,0-0.1,0.1-0.1,0.2s-0.1,0.1-0.1,0.1l0,0h0c0,0,0-0.1-0.1-0.1c0-0.1-0.1-0.2-0.2-0.2L8.7,9.8h0.8V8.6H6.5v1.1
	h0.7l2,2.9l-2.1,3H6.4z"/>
</svg>
