<?xml version="1.0" encoding="utf-8"?>
<!-- Generator: Adobe Illustrator 21.0.0, SVG Export Plug-In . SVG Version: 6.00 Build 0)  -->
<!DOCTYPE svg PUBLIC "-//W3C//DTD SVG 1.1//EN" "http://www.w3.org/Graphics/SVG/1.1/DTD/svg11.dtd">
<svg version="1.1" id="Layer_1" xmlns="http://www.w3.org/2000/svg" xmlns:xlink="http://www.w3.org/1999/xlink" x="0px" y="0px"
	 viewBox="0 0 20 20" style="enable-background:new 0 0 20 20;" xml:space="preserve">
<path d="M8.6,4.6V3.2H7.3v1.4H8.6z M10,5.9V4.6H8.6v1.4H10z M8.6,7.3V5.9H7.3v1.4H8.6z M10,8.6V7.3H8.6v1.4H10z M17.4,4.5
	c0.2,0.2,0.4,0.5,0.5,0.8c0.1,0.3,0.2,0.7,0.2,0.9v12.2c0,0.3-0.1,0.5-0.3,0.7s-0.4,0.3-0.7,0.3H2.9c-0.3,0-0.5-0.1-0.7-0.3
	s-0.3-0.4-0.3-0.7v-17C1.9,1.2,2,1,2.2,0.8s0.4-0.3,0.7-0.3h9.5c0.3,0,0.6,0.1,0.9,0.2s0.6,0.3,0.8,0.5L17.4,4.5z M12.7,1.9v4h4
	c-0.1-0.2-0.1-0.3-0.2-0.4l-3.3-3.3C13.1,2.1,12.9,2,12.7,1.9z M16.8,18.1V7.3h-4.4c-0.3,0-0.5-0.1-0.7-0.3
	c-0.2-0.2-0.3-0.4-0.3-0.7V1.9H10v1.4H8.6V1.9H3.2v16.3H16.8z M10.1,10.5l1.1,3.7c0.1,0.2,0.1,0.4,0.1,0.6c0,0.6-0.3,1.1-0.8,1.5
	s-1.2,0.6-1.9,0.6c-0.8,0-1.4-0.2-1.9-0.6s-0.8-0.9-0.8-1.5c0-0.2,0-0.4,0.1-0.6c0.1-0.4,0.6-1.8,1.3-4.2V8.6h1.4V10h0.8
	c0.2,0,0.3,0,0.4,0.1C10,10.2,10.1,10.3,10.1,10.5z M8.6,15.4c0.4,0,0.7-0.1,1-0.2s0.4-0.3,0.4-0.5s-0.1-0.3-0.4-0.5s-0.6-0.2-1-0.2
	c-0.4,0-0.7,0.1-1,0.2s-0.4,0.3-0.4,0.5s0.1,0.3,0.4,0.5S8.3,15.4,8.6,15.4z"/>
</svg>
