<?xml version="1.0" encoding="utf-8"?>
<!-- Generator: Adobe Illustrator 21.0.0, SVG Export Plug-In . SVG Version: 6.00 Build 0)  -->
<!DOCTYPE svg PUBLIC "-//W3C//DTD SVG 1.1//EN" "https://www.w3.org/Graphics/SVG/1.1/DTD/svg11.dtd">
<svg version="1.1" id="Layer_1" xmlns="https://www.w3.org/2000/svg" xmlns:xlink="https://www.w3.org/1999/xlink" x="0px" y="0px"
	 viewBox="0 0 20 20" style="enable-background:new 0 0 20 20;" xml:space="preserve">
<path d="M15.9,0.5c1,0,1.8,0.3,2.5,1c0.7,0.7,1,1.5,1,2.5v11.9c0,1-0.3,1.8-1,2.5c-0.7,0.7-1.5,1-2.5,1H4.1c-1,0-1.8-0.3-2.5-1
	c-0.7-0.7-1-1.5-1-2.5V4.1c0-1,0.3-1.8,1-2.5s1.5-1,2.5-1H15.9z M9.1,10c0-0.7-0.3-1.3-0.8-1.9S7.2,7.4,6.5,7.4S5.2,7.6,4.7,8.1
	S3.9,9.3,3.9,10s0.3,1.3,0.8,1.9s1.1,0.8,1.9,0.8s1.3-0.3,1.9-0.8S9.1,10.7,9.1,10z M16.1,10c0-0.7-0.3-1.3-0.8-1.9
	s-1.1-0.8-1.9-0.8s-1.3,0.3-1.9,0.8s-0.8,1.1-0.8,1.9s0.3,1.3,0.8,1.9s1.1,0.8,1.9,0.8s1.3-0.3,1.9-0.8S16.1,10.7,16.1,10z"/>
</svg>
