<?xml version="1.0" encoding="utf-8"?>
<!-- Generator: Adobe Illustrator 21.0.0, SVG Export Plug-In . SVG Version: 6.00 Build 0)  -->
<!DOCTYPE svg PUBLIC "-//W3C//DTD SVG 1.1//EN" "https://www.w3.org/Graphics/SVG/1.1/DTD/svg11.dtd">
<svg version="1.1" id="Layer_1" xmlns="https://www.w3.org/2000/svg" xmlns:xlink="https://www.w3.org/1999/xlink" x="0px" y="0px"
	 viewBox="0 0 20 20" style="enable-background:new 0 0 20 20;" xml:space="preserve">
<path d="M5.4,15.6c-0.1,0.1-0.1,0.1-0.2,0c-0.1-0.1-0.1-0.2,0-0.2c0.1-0.1,0.1-0.1,0.2,0C5.4,15.5,5.4,15.6,5.4,15.6z M4.9,14.9
	c0.1,0.1,0.1,0.2,0,0.2c-0.1,0-0.1,0-0.2-0.1s-0.1-0.2,0-0.2C4.7,14.8,4.8,14.8,4.9,14.9z M4.1,14.1c0,0.1-0.1,0.1-0.2,0
	c-0.1,0-0.1-0.1-0.1-0.1c0,0,0.1,0,0.2,0C4.1,14,4.1,14.1,4.1,14.1z M4.5,14.6c0,0.1-0.1,0-0.2,0c-0.1-0.1-0.1-0.2,0-0.2
	c0,0,0.1,0,0.2,0C4.5,14.5,4.5,14.5,4.5,14.6z M6.1,15.9C6,16,6,16.1,5.8,16c-0.1,0-0.2-0.1-0.2-0.2c0-0.1,0.1-0.1,0.2-0.1
	C6,15.8,6.1,15.9,6.1,15.9z M6.9,16c0,0.1-0.1,0.1-0.2,0.1c-0.1,0-0.2,0-0.2-0.1c0-0.1,0.1-0.1,0.2-0.1C6.8,15.9,6.9,15.9,6.9,16z
	 M7.6,15.9c0,0.1,0,0.1-0.2,0.2s-0.2,0-0.2-0.1s0-0.2,0.2-0.2C7.5,15.8,7.6,15.8,7.6,15.9z M19.5,4.1v11.9c0,1-0.3,1.8-1,2.5
	c-0.7,0.7-1.5,1-2.5,1h-2.8c-0.1,0-0.2,0-0.3,0c-0.1,0-0.2,0-0.2-0.1c-0.1,0-0.2-0.1-0.2-0.2c0-0.1-0.1-0.2-0.1-0.3v-3
	c0-0.8-0.2-1.4-0.6-1.8c0.5,0,0.9-0.1,1.3-0.2s0.8-0.3,1.2-0.5c0.4-0.2,0.7-0.5,1-0.8c0.3-0.3,0.5-0.8,0.7-1.3
	c0.2-0.5,0.3-1.2,0.3-1.9c0-1-0.3-1.8-1-2.5c0.3-0.8,0.3-1.6-0.1-2.5c-0.2-0.1-0.6,0-1,0.1c-0.4,0.2-0.8,0.3-1.1,0.5l-0.5,0.3
	c-0.8-0.2-1.6-0.3-2.4-0.3S8.4,5.2,7.6,5.4C7.5,5.3,7.3,5.2,7.1,5.1c-0.2-0.1-0.6-0.3-1-0.5S5.2,4.4,5,4.4C4.6,5.4,4.6,6.2,4.9,7
	c-0.7,0.7-1,1.6-1,2.5c0,0.7,0.1,1.3,0.3,1.9c0.2,0.5,0.4,1,0.6,1.3s0.6,0.6,1,0.8C6.2,13.7,6.6,13.9,7,14c0.4,0.1,0.8,0.2,1.3,0.2
	c-0.3,0.3-0.5,0.7-0.6,1.3c-0.2,0.1-0.4,0.1-0.6,0.2s-0.4,0.1-0.7,0.1s-0.5-0.1-0.8-0.3c-0.3-0.2-0.5-0.4-0.7-0.8
	c-0.2-0.3-0.4-0.5-0.6-0.6c-0.2-0.2-0.4-0.3-0.6-0.3l-0.2,0c-0.2,0-0.3,0-0.4,0.1S3,13.8,3,13.9s0.1,0.1,0.1,0.2
	c0,0.1,0.1,0.1,0.2,0.1l0.1,0.1c0.2,0.1,0.4,0.2,0.5,0.5c0.2,0.2,0.3,0.4,0.4,0.6l0.1,0.3C4.5,16,4.7,16.2,5,16.4
	c0.3,0.2,0.5,0.3,0.8,0.4c0.3,0.1,0.6,0.1,0.9,0.1s0.5,0,0.7,0l0.3,0c0,0.3,0,0.7,0,1.3c0,0.5,0,0.8,0,0.8c0,0.2,0,0.3-0.1,0.4
	c-0.1,0.1-0.2,0.1-0.3,0.2s-0.2,0-0.4,0H4.1c-1,0-1.8-0.3-2.5-1c-0.7-0.7-1-1.5-1-2.5V4.1c0-1,0.3-1.8,1-2.5s1.5-1,2.5-1h11.9
	c1,0,1.8,0.3,2.5,1C19.2,2.2,19.5,3.1,19.5,4.1z"/>
</svg>
