<?xml version="1.0" encoding="utf-8"?>
<!-- Generator: Adobe Illustrator 21.0.0, SVG Export Plug-In . SVG Version: 6.00 Build 0)  -->
<!DOCTYPE svg PUBLIC "-//W3C//DTD SVG 1.1//EN" "https://www.w3.org/Graphics/SVG/1.1/DTD/svg11.dtd">
<svg version="1.1" id="Layer_1" xmlns="https://www.w3.org/2000/svg" xmlns:xlink="https://www.w3.org/1999/xlink" x="0px" y="0px"
	 viewBox="0 0 20 20" style="enable-background:new 0 0 20 20;" xml:space="preserve">
<path d="M19.5,10.2c0,2.1-0.6,3.9-1.8,5.6c-1.2,1.7-2.8,2.8-4.7,3.4c-0.2,0-0.4,0-0.5-0.1c-0.1-0.1-0.2-0.2-0.2-0.4v-2.6
	c0-0.8-0.2-1.4-0.6-1.8c0.5,0,0.9-0.1,1.3-0.2c0.4-0.1,0.8-0.3,1.2-0.5c0.4-0.2,0.7-0.5,1-0.8c0.3-0.3,0.5-0.8,0.7-1.3
	s0.3-1.2,0.3-1.9c0-1-0.3-1.8-1-2.5c0.3-0.8,0.3-1.6-0.1-2.5c-0.2-0.1-0.6,0-1,0.1c-0.4,0.2-0.8,0.3-1.1,0.5l-0.5,0.3
	c-0.8-0.2-1.6-0.3-2.4-0.3S8.4,5.4,7.6,5.6C7.5,5.6,7.3,5.4,7.1,5.3C6.9,5.2,6.5,5,6.1,4.8S5.2,4.6,5,4.7C4.6,5.6,4.6,6.4,4.9,7.2
	c-0.7,0.7-1,1.6-1,2.5c0,0.7,0.1,1.3,0.3,1.9c0.2,0.5,0.4,1,0.6,1.3s0.6,0.6,1,0.8c0.4,0.2,0.8,0.4,1.2,0.5c0.4,0.1,0.8,0.2,1.3,0.2
	c-0.3,0.3-0.5,0.7-0.6,1.3c-0.2,0.1-0.4,0.1-0.6,0.2s-0.4,0.1-0.7,0.1s-0.5-0.1-0.8-0.3c-0.3-0.2-0.5-0.4-0.7-0.8
	c-0.2-0.3-0.4-0.5-0.6-0.6S3.9,14,3.7,14l-0.2,0c-0.2,0-0.3,0-0.4,0.1S3,14.1,3,14.1c0,0.1,0.1,0.1,0.1,0.2s0.1,0.1,0.2,0.1l0.1,0.1
	c0.2,0.1,0.4,0.2,0.5,0.5c0.2,0.2,0.3,0.4,0.4,0.6l0.1,0.3c0.1,0.3,0.3,0.6,0.5,0.8C5.2,16.9,5.5,17,5.8,17s0.6,0.1,0.9,0.1
	s0.5,0,0.7,0l0.3,0c0,0.3,0,0.7,0,1.1s0,0.6,0,0.7c0,0.1-0.1,0.3-0.2,0.4c-0.1,0.1-0.3,0.1-0.5,0.1c-1.9-0.6-3.5-1.8-4.7-3.4
	s-1.8-3.5-1.8-5.6c0-1.7,0.4-3.3,1.3-4.8s2-2.6,3.5-3.5s3-1.3,4.8-1.3s3.3,0.4,4.8,1.3s2.6,2,3.5,3.5S19.5,8.5,19.5,10.2z"/>
</svg>
