<?xml version="1.0" encoding="utf-8"?>
<!-- Generator: Adobe Illustrator 21.0.0, SVG Export Plug-In . SVG Version: 6.00 Build 0)  -->
<!DOCTYPE svg PUBLIC "-//W3C//DTD SVG 1.1//EN" "http://www.w3.org/Graphics/SVG/1.1/DTD/svg11.dtd">
<svg version="1.1" id="Layer_1" xmlns="http://www.w3.org/2000/svg" xmlns:xlink="http://www.w3.org/1999/xlink" x="0px" y="0px"
	 viewBox="0 0 20 20" style="enable-background:new 0 0 20 20;" xml:space="preserve">
<path d="M7.8,12.9c0,0.3,0,0.6-0.1,0.9c-0.1,0.3-0.3,0.6-0.5,0.9s-0.5,0.4-0.8,0.4c-0.3,0-0.6-0.1-0.8-0.4S5.1,14.2,5,13.9
	s-0.1-0.6-0.1-0.9c0-0.3,0-0.6,0.1-0.9c0.1-0.3,0.3-0.6,0.5-0.9c0.2-0.3,0.5-0.4,0.8-0.4c0.3,0,0.6,0.1,0.8,0.4
	c0.2,0.3,0.4,0.5,0.5,0.9C7.8,12.3,7.8,12.6,7.8,12.9z M15.1,12.9c0,0.3,0,0.6-0.1,0.9s-0.3,0.6-0.5,0.9s-0.5,0.4-0.8,0.4
	c-0.3,0-0.6-0.1-0.8-0.4c-0.2-0.3-0.4-0.5-0.5-0.9s-0.1-0.6-0.1-0.9c0-0.3,0-0.6,0.1-0.9c0.1-0.3,0.3-0.6,0.5-0.9
	c0.2-0.3,0.5-0.4,0.8-0.4c0.3,0,0.6,0.1,0.8,0.4c0.2,0.3,0.4,0.5,0.5,0.9C15.1,12.3,15.1,12.6,15.1,12.9z M16.9,12.9
	c0-0.9-0.3-1.7-0.8-2.3c-0.5-0.6-1.2-1-2.1-1c-0.3,0-1.1,0.1-2.2,0.2C11.3,10,10.7,10,10,10s-1.3,0-1.8-0.1C7.1,9.7,6.3,9.6,6,9.6
	c-0.9,0-1.6,0.3-2.1,1S3.1,12,3.1,12.9c0,0.7,0.1,1.3,0.4,1.8s0.6,0.9,0.9,1.2s0.8,0.5,1.4,0.7s1.1,0.3,1.6,0.3
	C7.8,16.9,8.4,17,9,17H11c0.6,0,1.2,0,1.7-0.1c0.5-0.1,1-0.2,1.6-0.3c0.6-0.2,1-0.4,1.4-0.7s0.7-0.7,0.9-1.2
	C16.8,14.2,16.9,13.6,16.9,12.9z M19.5,10.9c0,1.6-0.2,2.8-0.7,3.8c-0.3,0.6-0.7,1.1-1.2,1.5c-0.5,0.4-1.1,0.8-1.6,1
	c-0.6,0.2-1.2,0.4-1.9,0.5c-0.7,0.1-1.4,0.2-2,0.3c-0.6,0-1.2,0.1-1.9,0.1c-0.6,0-1.1,0-1.6,0c-0.5,0-1-0.1-1.7-0.1
	c-0.6-0.1-1.2-0.2-1.7-0.3s-1-0.4-1.6-0.6s-1-0.5-1.4-0.9s-0.7-0.8-1-1.3c-0.5-0.9-0.7-2.2-0.7-3.8c0-1.8,0.5-3.3,1.6-4.5
	C1.8,5.8,1.7,5.1,1.7,4.5c0-0.9,0.2-1.7,0.6-2.5c0.8,0,1.5,0.2,2.2,0.5s1.3,0.8,2.2,1.4c1.1-0.3,2.3-0.4,3.5-0.4
	c1.1,0,2.2,0.1,3.2,0.4c0.8-0.6,1.5-1.1,2.1-1.4C16.1,2.1,16.9,2,17.7,2c0.4,0.8,0.6,1.6,0.6,2.5c0,0.7-0.1,1.3-0.3,1.9
	C19,7.6,19.5,9.1,19.5,10.9z"/>
</svg>
