<?xml version="1.0" encoding="utf-8"?>
<!-- Generator: Adobe Illustrator 21.0.0, SVG Export Plug-In . SVG Version: 6.00 Build 0)  -->
<!DOCTYPE svg PUBLIC "-//W3C//DTD SVG 1.1//EN" "https://www.w3.org/Graphics/SVG/1.1/DTD/svg11.dtd">
<svg version="1.1" id="Layer_1" xmlns="https://www.w3.org/2000/svg" xmlns:xlink="https://www.w3.org/1999/xlink" x="0px" y="0px"
	 viewBox="0 0 20 20" style="enable-background:new 0 0 20 20;" xml:space="preserve">
<path d="M11.8,10.1c0-0.2,0-0.5-0.1-0.8H7.3V11H10c0,0.2-0.1,0.4-0.2,0.6S9.5,12,9.3,12.2c-0.2,0.2-0.5,0.4-0.8,0.6S7.7,13,7.3,13
	c-0.8,0-1.5-0.3-2.1-0.9S4.3,10.8,4.3,10s0.3-1.5,0.9-2.1S6.5,7,7.3,7C8,7,8.7,7.2,9.2,7.7l1.3-1.2c-0.9-0.8-2-1.2-3.2-1.2
	C6,5.2,4.9,5.7,3.9,6.6s-1.4,2-1.4,3.4s0.5,2.4,1.4,3.4s2,1.4,3.4,1.4c1.4,0,2.5-0.4,3.3-1.3S11.8,11.5,11.8,10.1z M16.1,10.7h1.3
	V9.3h-1.3V8h-1.4v1.4h-1.4v1.4h1.4V12h1.4V10.7z M19.5,4.1v11.9c0,1-0.3,1.8-1,2.5c-0.7,0.7-1.5,1-2.5,1H4.1c-1,0-1.8-0.3-2.5-1
	c-0.7-0.7-1-1.5-1-2.5V4.1c0-1,0.3-1.8,1-2.5s1.5-1,2.5-1h11.9c1,0,1.8,0.3,2.5,1C19.2,2.2,19.5,3.1,19.5,4.1z"/>
</svg>
