<?xml version="1.0" encoding="utf-8"?>
<!-- Generator: Adobe Illustrator 21.0.0, SVG Export Plug-In . SVG Version: 6.00 Build 0)  -->
<!DOCTYPE svg PUBLIC "-//W3C//DTD SVG 1.1//EN" "http://www.w3.org/Graphics/SVG/1.1/DTD/svg11.dtd">
<svg version="1.1" id="Layer_1" xmlns="http://www.w3.org/2000/svg" xmlns:xlink="http://www.w3.org/1999/xlink" x="0px" y="0px"
	 viewBox="0 0 20 20" style="enable-background:new 0 0 20 20;" xml:space="preserve">
<path d="M17.3,16.6v-8h-1.7c0.2,0.5,0.2,1.1,0.2,1.6c0,1-0.3,2-0.8,2.9c-0.5,0.9-1.2,1.6-2.2,2.1c-0.9,0.5-1.9,0.8-3,0.8
	c-1.6,0-3-0.6-4.2-1.7s-1.7-2.5-1.7-4.1c0-0.6,0.1-1.1,0.2-1.6H2.6v8c0,0.2,0.1,0.4,0.2,0.5c0.1,0.1,0.3,0.2,0.5,0.2h13.2
	c0.2,0,0.4-0.1,0.5-0.2S17.3,16.8,17.3,16.6z M13.8,10c0-1-0.4-1.9-1.1-2.6S11.1,6.3,10,6.3c-1,0-1.9,0.4-2.7,1.1S6.2,8.9,6.2,10
	s0.4,1.9,1.1,2.6S9,13.7,10,13.7c1.1,0,2-0.4,2.7-1.1S13.8,11,13.8,10z M17.3,5.5v-2c0-0.2-0.1-0.4-0.2-0.6
	c-0.2-0.2-0.4-0.3-0.6-0.3h-2.2c-0.2,0-0.4,0.1-0.6,0.3c-0.2,0.2-0.2,0.4-0.2,0.6v2c0,0.2,0.1,0.4,0.2,0.6c0.2,0.2,0.4,0.2,0.6,0.2
	h2.2c0.2,0,0.4-0.1,0.6-0.2C17.3,6,17.3,5.7,17.3,5.5z M19.5,2.9v14.1c0,0.7-0.2,1.2-0.7,1.7s-1.1,0.7-1.7,0.7H2.9
	c-0.7,0-1.2-0.2-1.7-0.7s-0.7-1.1-0.7-1.7V2.9c0-0.7,0.2-1.2,0.7-1.7s1.1-0.7,1.7-0.7h14.1c0.7,0,1.2,0.2,1.7,0.7S19.5,2.3,19.5,2.9
	z"/>
</svg>
