<?xml version="1.0" encoding="utf-8"?>
<!-- Generator: Adobe Illustrator 21.0.0, SVG Export Plug-In . SVG Version: 6.00 Build 0)  -->
<!DOCTYPE svg PUBLIC "-//W3C//DTD SVG 1.1//EN" "http://www.w3.org/Graphics/SVG/1.1/DTD/svg11.dtd">
<svg version="1.1" id="Layer_1" xmlns="http://www.w3.org/2000/svg" xmlns:xlink="http://www.w3.org/1999/xlink" x="0px" y="0px"
	 viewBox="0 0 20 20" style="enable-background:new 0 0 20 20;" xml:space="preserve">
<path d="M3.4,16.4h2.9V7.8H3.4V16.4z M6.5,5.2c0-0.4-0.2-0.8-0.4-1.1C5.7,3.8,5.4,3.7,4.9,3.7S4,3.8,3.7,4.1
	C3.4,4.4,3.3,4.7,3.3,5.2c0,0.4,0.1,0.8,0.4,1.1s0.7,0.4,1.1,0.4h0c0.5,0,0.9-0.1,1.2-0.4S6.5,5.6,6.5,5.2z M13.7,16.4h2.9v-4.9
	c0-1.3-0.3-2.2-0.9-2.9c-0.6-0.7-1.4-1-2.4-1c-1.1,0-2,0.5-2.6,1.4h0V7.8H7.9c0,0.5,0,3.4,0,8.6h2.9v-4.8c0-0.3,0-0.5,0.1-0.7
	c0.1-0.3,0.3-0.5,0.6-0.7c0.2-0.2,0.6-0.3,0.9-0.3c1,0,1.4,0.6,1.4,1.9V16.4z M19.5,4.1v11.9c0,1-0.3,1.8-1,2.5
	c-0.7,0.7-1.5,1-2.5,1H4.1c-1,0-1.8-0.3-2.5-1c-0.7-0.7-1-1.5-1-2.5V4.1c0-1,0.3-1.8,1-2.5s1.5-1,2.5-1h11.9c1,0,1.8,0.3,2.5,1
	C19.2,2.2,19.5,3.1,19.5,4.1z"/>
</svg>
