<?xml version="1.0" encoding="utf-8"?>
<!-- Generator: Adobe Illustrator 21.0.0, SVG Export Plug-In . SVG Version: 6.00 Build 0)  -->
<!DOCTYPE svg PUBLIC "-//W3C//DTD SVG 1.1//EN" "http://www.w3.org/Graphics/SVG/1.1/DTD/svg11.dtd">
<svg version="1.1" id="Layer_1" xmlns="http://www.w3.org/2000/svg" xmlns:xlink="http://www.w3.org/1999/xlink" x="0px" y="0px"
	 viewBox="0 0 20 20" style="enable-background:new 0 0 20 20;" xml:space="preserve">
<path d="M4.8,6.8v12.3H0.7V6.8H4.8z M5.1,3c0,0.6-0.2,1.1-0.6,1.5s-1,0.6-1.7,0.6h0c-0.7,0-1.2-0.2-1.6-0.6S0.5,3.6,0.5,3
	c0-0.6,0.2-1.1,0.6-1.5s1-0.6,1.7-0.6S4,1.1,4.4,1.5C4.9,1.9,5.1,2.4,5.1,3z M19.5,12.1v7h-4.1v-6.6c0-0.9-0.2-1.5-0.5-2
	c-0.3-0.5-0.9-0.7-1.6-0.7c-0.5,0-1,0.1-1.3,0.4c-0.4,0.3-0.6,0.6-0.8,1.1c-0.1,0.2-0.1,0.6-0.1,1v6.8H7.1c0-3.3,0-6,0-8
	s0-3.3,0-3.7l0-0.6h4.1v1.8h0c0.2-0.3,0.3-0.5,0.5-0.7c0.2-0.2,0.4-0.4,0.7-0.6C12.6,7,13,6.9,13.4,6.7s0.9-0.2,1.4-0.2
	c1.4,0,2.5,0.5,3.4,1.4S19.5,10.2,19.5,12.1z"/>
</svg>
