<?xml version="1.0" encoding="utf-8"?>
<!-- Generator: Adobe Illustrator 21.0.0, SVG Export Plug-In . SVG Version: 6.00 Build 0)  -->
<!DOCTYPE svg PUBLIC "-//W3C//DTD SVG 1.1//EN" "https://www.w3.org/Graphics/SVG/1.1/DTD/svg11.dtd">
<svg version="1.1" id="Layer_1" xmlns="https://www.w3.org/2000/svg" xmlns:xlink="https://www.w3.org/1999/xlink" x="0px" y="0px"
	 viewBox="0 0 20 20" style="enable-background:new 0 0 20 20;" xml:space="preserve">
<path d="M13.2,6.8c0-0.9-0.3-1.6-0.9-2.2C11.6,4,10.9,3.7,10,3.7S8.4,4,7.8,4.6S6.8,6,6.8,6.8s0.3,1.6,0.9,2.2S9.1,10,10,10
	s1.6-0.3,2.2-0.9C12.9,8.5,13.2,7.7,13.2,6.8z M16.3,6.8c0,0.9-0.1,1.6-0.4,2.2l-4.5,9.6c-0.1,0.3-0.3,0.5-0.6,0.6
	c-0.3,0.2-0.5,0.2-0.8,0.2s-0.6-0.1-0.8-0.2c-0.3-0.2-0.5-0.4-0.6-0.6L4.1,9C3.8,8.5,3.7,7.7,3.7,6.8c0-1.7,0.6-3.2,1.9-4.5
	S8.3,0.5,10,0.5s3.2,0.6,4.5,1.9S16.3,5.1,16.3,6.8z"/>
</svg>
