<?xml version="1.0" encoding="utf-8"?>
<!-- Generator: Adobe Illustrator 21.0.0, SVG Export Plug-In . SVG Version: 6.00 Build 0)  -->
<!DOCTYPE svg PUBLIC "-//W3C//DTD SVG 1.1//EN" "http://www.w3.org/Graphics/SVG/1.1/DTD/svg11.dtd">
<svg version="1.1" id="Layer_1" xmlns="http://www.w3.org/2000/svg" xmlns:xlink="http://www.w3.org/1999/xlink" x="0px" y="0px"
	 viewBox="0 0 20 20" style="enable-background:new 0 0 20 20;" xml:space="preserve">
<path d="M6.8,5v12.4c0,0.2,0,0.3-0.1,0.5S6.5,18,6.3,18C6.2,18,6.1,18,6,18L1,15.5c-0.1-0.1-0.3-0.2-0.4-0.4s-0.2-0.3-0.2-0.5V2.5
	c0-0.1,0-0.3,0.1-0.4S0.8,2,0.9,2C1,2,1.2,2.1,1.4,2.2L6.8,5C6.8,4.9,6.8,4.9,6.8,5z M7.5,6l5.7,9.2l-5.7-2.8V6z M19.5,6.2v11.2
	c0,0.2,0,0.3-0.1,0.4S19.1,18,18.9,18c-0.2,0-0.3,0-0.5-0.1l-4.7-2.3L19.5,6.2z M19.5,5c0,0-0.9,1.5-2.7,4.4
	c-1.8,2.9-2.9,4.7-3.2,5.2L9.4,7.8l3.4-5.6C13,2.1,13.2,2,13.4,2c0.1,0,0.2,0,0.3,0.1L19.5,5C19.5,4.9,19.5,4.9,19.5,5z"/>
</svg>
