<?xml version="1.0" encoding="utf-8"?>
<!-- Generator: Adobe Illustrator 21.0.0, SVG Export Plug-In . SVG Version: 6.00 Build 0)  -->
<!DOCTYPE svg PUBLIC "-//W3C//DTD SVG 1.1//EN" "https://www.w3.org/Graphics/SVG/1.1/DTD/svg11.dtd">
<svg version="1.1" id="Layer_1" xmlns="https://www.w3.org/2000/svg" xmlns:xlink="https://www.w3.org/1999/xlink" x="0px" y="0px"
	 viewBox="0 0 20 20" style="enable-background:new 0 0 20 20;" xml:space="preserve">
<path d="M11.2,17.6c0-0.3-0.1-0.6-0.3-0.8s-0.5-0.3-0.8-0.3s-0.6,0.1-0.8,0.3s-0.3,0.5-0.3,0.8s0.1,0.6,0.3,0.8s0.5,0.3,0.8,0.3
	s0.6-0.1,0.8-0.3S11.2,17.9,11.2,17.6z M14.3,15.2V4.8c0-0.1,0-0.2-0.1-0.3c-0.1-0.1-0.2-0.1-0.3-0.1H6.2c-0.1,0-0.2,0-0.3,0.1
	C5.8,4.5,5.7,4.6,5.7,4.8v10.5c0,0.1,0,0.2,0.1,0.3c0.1,0.1,0.2,0.1,0.3,0.1h7.6c0.1,0,0.2,0,0.3-0.1C14.2,15.5,14.3,15.4,14.3,15.2
	z M11.4,2.6c0-0.2-0.1-0.2-0.2-0.2H8.8c-0.2,0-0.2,0.1-0.2,0.2c0,0.2,0.1,0.2,0.2,0.2h2.4C11.3,2.9,11.4,2.8,11.4,2.6z M15.7,2.4
	v15.2c0,0.5-0.2,1-0.6,1.3c-0.4,0.4-0.8,0.6-1.3,0.6H6.2c-0.5,0-1-0.2-1.3-0.6c-0.4-0.4-0.6-0.8-0.6-1.3V2.4c0-0.5,0.2-1,0.6-1.3
	s0.8-0.6,1.3-0.6h7.6c0.5,0,1,0.2,1.3,0.6S15.7,1.9,15.7,2.4z"/>
</svg>
