<?xml version="1.0" encoding="utf-8"?>
<!-- Generator: Adobe Illustrator 21.0.0, SVG Export Plug-In . SVG Version: 6.00 Build 0)  -->
<!DOCTYPE svg PUBLIC "-//W3C//DTD SVG 1.1//EN" "https://www.w3.org/Graphics/SVG/1.1/DTD/svg11.dtd">
<svg version="1.1" id="Layer_1" xmlns="https://www.w3.org/2000/svg" xmlns:xlink="https://www.w3.org/1999/xlink" x="0px" y="0px"
	 viewBox="0 0 20 20" style="enable-background:new 0 0 20 20;" xml:space="preserve">
<path d="M17.8,7.3c0.1,0.6,0.1,1.3,0,2.2c-0.6,3.1-2.6,4.7-6,4.7h-0.5c-0.2,0-0.3,0.1-0.5,0.2c-0.1,0.1-0.2,0.3-0.3,0.5l0,0.2
	l-0.6,3.7l0,0.2c0,0.2-0.1,0.3-0.3,0.5c-0.1,0.1-0.3,0.2-0.5,0.2H6.5c-0.1,0-0.3-0.1-0.3-0.2C6.1,19.2,6,19.1,6.1,19
	c0.1-0.4,0.2-1,0.3-1.8s0.2-1.4,0.3-1.8c0.1-0.4,0.2-1,0.3-1.8c0.1-0.8,0.2-1.4,0.3-1.8c0-0.3,0.2-0.4,0.5-0.4H9
	c0.9,0,1.8-0.1,2.5-0.2c1.2-0.3,2.3-0.8,3-1.5c0.7-0.7,1.3-1.5,1.6-2.6c0.2-0.5,0.3-1,0.4-1.4c0,0,0-0.1,0-0.1c0,0,0,0,0,0
	s0,0,0.1,0C17.3,6,17.6,6.6,17.8,7.3z M15.9,4.4c0,0.8-0.2,1.6-0.5,2.5c-0.6,1.6-1.6,2.8-3.2,3.3c-0.8,0.3-1.7,0.4-2.7,0.4
	c0,0-0.3,0-1,0l-1,0c-0.7,0-1.1,0.3-1.3,1c0,0.1-0.3,1.9-0.9,5.6c0,0.1,0,0.1-0.1,0.1H2.3c-0.2,0-0.3-0.1-0.4-0.2
	c-0.1-0.1-0.1-0.3-0.1-0.4L4.2,1.2c0-0.2,0.1-0.4,0.3-0.5C4.7,0.6,4.8,0.5,5,0.5h6.3c0.2,0,0.6,0,1,0.1s0.8,0.2,1.2,0.3
	c0.8,0.3,1.3,0.7,1.7,1.3C15.7,2.9,15.9,3.6,15.9,4.4z"/>
</svg>
