<?xml version="1.0" encoding="utf-8"?>
<!-- Generator: Adobe Illustrator 21.0.0, SVG Export Plug-In . SVG Version: 6.00 Build 0)  -->
<!DOCTYPE svg PUBLIC "-//W3C//DTD SVG 1.1//EN" "http://www.w3.org/Graphics/SVG/1.1/DTD/svg11.dtd">
<svg version="1.1" id="Layer_1" xmlns="http://www.w3.org/2000/svg" xmlns:xlink="http://www.w3.org/1999/xlink" x="0px" y="0px"
	 viewBox="0 0 20 20" style="enable-background:new 0 0 20 20;" xml:space="preserve">
<path d="M2.7,7.3c0-0.8,0.1-1.6,0.4-2.3s0.7-1.4,1.2-1.9s1.1-1,1.7-1.4S7.4,1,8.2,0.8s1.5-0.3,2.3-0.3c1.2,0,2.3,0.3,3.4,0.8
	s1.9,1.2,2.5,2.2c0.6,1,1,2.1,1,3.3c0,0.7-0.1,1.4-0.2,2.1c-0.1,0.7-0.4,1.4-0.7,2s-0.7,1.2-1.1,1.7c-0.4,0.5-1,0.9-1.7,1.2
	c-0.7,0.3-1.4,0.4-2.2,0.4c-0.5,0-1-0.1-1.5-0.4c-0.5-0.2-0.9-0.6-1.1-1c-0.1,0.3-0.2,0.7-0.3,1.3c-0.1,0.6-0.2,0.9-0.3,1.1
	c0,0.2-0.1,0.4-0.2,0.8c-0.1,0.4-0.2,0.6-0.3,0.8s-0.2,0.4-0.4,0.7S7,18.2,6.8,18.5s-0.4,0.6-0.7,1l-0.2,0.1l-0.1-0.1
	c-0.1-1.2-0.2-1.9-0.2-2.1c0-0.7,0.1-1.5,0.2-2.4c0.2-0.9,0.4-2,0.8-3.3s0.5-2.1,0.6-2.3C7,8.8,6.9,8.1,6.9,7.4
	c0-0.6,0.2-1.2,0.6-1.8S8.4,4.7,9,4.7c0.5,0,0.8,0.2,1.1,0.5c0.3,0.3,0.4,0.7,0.4,1.2c0,0.5-0.2,1.2-0.5,2.2c-0.3,1-0.5,1.7-0.5,2.1
	c0,0.5,0.2,0.9,0.5,1.2c0.3,0.3,0.8,0.5,1.2,0.5c0.4,0,0.8-0.1,1.2-0.3c0.4-0.2,0.7-0.4,0.9-0.8c0.2-0.3,0.5-0.7,0.6-1.1
	c0.2-0.4,0.3-0.8,0.4-1.3s0.2-0.9,0.2-1.3c0-0.4,0.1-0.8,0.1-1.1c0-1.3-0.4-2.3-1.3-3.1c-0.8-0.7-1.9-1.1-3.3-1.1
	c-1.5,0-2.8,0.5-3.8,1.5S4.8,6.1,4.8,7.6c0,0.3,0,0.7,0.1,1C5,8.9,5.1,9.1,5.3,9.3c0.1,0.2,0.2,0.4,0.3,0.5c0.1,0.2,0.1,0.3,0.1,0.3
	c0,0.2-0.1,0.5-0.2,0.8c-0.1,0.3-0.3,0.5-0.4,0.5c0,0-0.1,0-0.2,0c-0.4-0.1-0.7-0.3-1-0.6c-0.3-0.3-0.5-0.7-0.7-1.1
	C3,9.4,2.9,8.9,2.8,8.5C2.7,8.1,2.7,7.7,2.7,7.3z"/>
</svg>
