<?xml version="1.0" encoding="utf-8"?>
<!-- Generator: Adobe Illustrator 21.0.0, SVG Export Plug-In . SVG Version: 6.00 Build 0)  -->
<!DOCTYPE svg PUBLIC "-//W3C//DTD SVG 1.1//EN" "http://www.w3.org/Graphics/SVG/1.1/DTD/svg11.dtd">
<svg version="1.1" id="Layer_1" xmlns="http://www.w3.org/2000/svg" xmlns:xlink="http://www.w3.org/1999/xlink" x="0px" y="0px"
	 viewBox="0 0 20 20" style="enable-background:new 0 0 20 20;" xml:space="preserve">
<path d="M19.5,10c0,1.7-0.4,3.3-1.3,4.8s-2,2.6-3.5,3.5s-3,1.3-4.8,1.3c-0.9,0-1.8-0.1-2.7-0.4c0.5-0.8,0.8-1.4,1-2
	c0.1-0.3,0.3-1.2,0.7-2.6c0.2,0.3,0.5,0.6,0.9,0.8c0.4,0.2,0.9,0.4,1.4,0.4c1,0,1.9-0.3,2.7-0.8s1.4-1.3,1.8-2.3s0.6-2.1,0.6-3.3
	c0-0.9-0.2-1.8-0.7-2.6c-0.5-0.8-1.2-1.5-2.1-2s-2-0.8-3.2-0.8c-0.9,0-1.7,0.1-2.4,0.4C7.2,4.3,6.5,4.6,6,5c-0.5,0.4-1,0.9-1.3,1.4
	S4,7.4,3.8,8C3.7,8.5,3.6,9.1,3.6,9.6c0,0.9,0.2,1.6,0.5,2.3c0.3,0.7,0.8,1.1,1.4,1.4c0.2,0.1,0.4,0,0.5-0.2c0-0.1,0-0.2,0.1-0.4
	c0-0.2,0.1-0.3,0.1-0.4c0-0.2,0-0.4-0.1-0.5c-0.4-0.5-0.6-1.1-0.6-1.9c0-1.2,0.4-2.3,1.3-3.2s2-1.3,3.4-1.3c1.2,0,2.2,0.3,2.9,1
	c0.7,0.7,1,1.6,1,2.6c0,1.4-0.3,2.6-0.8,3.6S11.9,14,11,14c-0.5,0-0.9-0.2-1.2-0.5c-0.3-0.4-0.4-0.8-0.3-1.3
	c0.1-0.3,0.2-0.7,0.3-1.2s0.3-0.9,0.4-1.3c0.1-0.4,0.1-0.7,0.1-0.9c0-0.4-0.1-0.8-0.3-1s-0.5-0.4-1-0.4c-0.5,0-0.9,0.2-1.3,0.7
	C7.4,8.6,7.3,9.1,7.3,9.8c0,0.6,0.1,1.1,0.3,1.5l-1.2,5.2c-0.1,0.6-0.2,1.3-0.2,2.2c-1.7-0.8-3.1-1.9-4.1-3.5S0.5,11.9,0.5,10
	c0-1.7,0.4-3.3,1.3-4.8s2-2.6,3.5-3.5s3-1.3,4.8-1.3s3.3,0.4,4.8,1.3s2.6,2,3.5,3.5S19.5,8.3,19.5,10z"/>
</svg>
