<?xml version="1.0" encoding="utf-8"?>
<!-- Generator: Adobe Illustrator 21.0.0, SVG Export Plug-In . SVG Version: 6.00 Build 0)  -->
<!DOCTYPE svg PUBLIC "-//W3C//DTD SVG 1.1//EN" "https://www.w3.org/Graphics/SVG/1.1/DTD/svg11.dtd">
<svg version="1.1" id="Layer_1" xmlns="https://www.w3.org/2000/svg" xmlns:xlink="https://www.w3.org/1999/xlink" x="0px" y="0px"
	 viewBox="0 0 20 20" style="enable-background:new 0 0 20 20;" xml:space="preserve">
<path d="M15.9,0.5c1,0,1.8,0.3,2.5,1c0.7,0.7,1,1.5,1,2.5v11.9c0,1-0.3,1.8-1,2.5c-0.7,0.7-1.5,1-2.5,1H7c0.7-1,1.1-1.9,1.3-2.6
	c0.1-0.3,0.3-1.1,0.7-2.6c0.2,0.3,0.5,0.6,0.9,0.8c0.4,0.2,0.9,0.3,1.4,0.3c1.5,0,2.7-0.6,3.7-1.8s1.4-2.8,1.4-4.6
	c0-0.7-0.1-1.4-0.4-2c-0.3-0.6-0.7-1.2-1.2-1.7c-0.5-0.5-1.1-0.9-1.9-1.2s-1.6-0.5-2.4-0.5C9.5,3.7,8.7,3.8,8,4
	C7.2,4.3,6.6,4.6,6.1,5c-0.5,0.4-1,0.8-1.3,1.4s-0.6,1-0.8,1.6S3.7,9,3.7,9.5c0,0.8,0.2,1.6,0.5,2.2c0.3,0.6,0.8,1.1,1.4,1.4
	c0.1,0,0.2,0,0.3,0C6,13.1,6,13,6.1,12.9c0.1-0.4,0.1-0.6,0.2-0.8c0-0.2,0-0.4-0.1-0.5c-0.4-0.5-0.6-1.1-0.6-1.9
	c0-1.2,0.4-2.3,1.3-3.2s2-1.3,3.3-1.3c1.2,0,2.2,0.3,2.9,1c0.7,0.7,1,1.5,1,2.6c0,1.4-0.3,2.6-0.8,3.5s-1.3,1.5-2.1,1.5
	c-0.5,0-0.9-0.2-1.2-0.5c-0.3-0.4-0.4-0.8-0.3-1.3c0.1-0.3,0.2-0.7,0.3-1.1c0.2-0.5,0.3-0.9,0.4-1.3s0.1-0.7,0.1-0.9
	c0-0.4-0.1-0.7-0.3-1C9.8,7.4,9.5,7.3,9.1,7.3C8.6,7.3,8.2,7.5,7.9,8c-0.4,0.5-0.5,1-0.5,1.7c0,0.6,0.1,1.1,0.3,1.5l-1.2,5.1
	c-0.2,0.8-0.2,1.9-0.1,3.1H4.1c-1,0-1.8-0.3-2.5-1c-0.7-0.7-1-1.5-1-2.5V4.1c0-1,0.3-1.8,1-2.5s1.5-1,2.5-1H15.9z"/>
</svg>
