<?xml version="1.0" encoding="utf-8"?>
<!-- Generator: Adobe Illustrator 21.0.0, SVG Export Plug-In . SVG Version: 6.00 Build 0)  -->
<!DOCTYPE svg PUBLIC "-//W3C//DTD SVG 1.1//EN" "http://www.w3.org/Graphics/SVG/1.1/DTD/svg11.dtd">
<svg version="1.1" id="Layer_1" xmlns="http://www.w3.org/2000/svg" xmlns:xlink="http://www.w3.org/1999/xlink" x="0px" y="0px"
	 viewBox="0 0 20 20" style="enable-background:new 0 0 20 20;" xml:space="preserve">
<path d="M19.5,10c0,0.4-0.1,0.8-0.3,1.1s-0.5,0.6-0.8,0.8c0.1,0.3,0.1,0.7,0.1,1c0,1.1-0.4,2.1-1.1,3c-0.8,0.9-1.8,1.7-3.1,2.2
	C13,18.7,11.5,19,10,19s-2.9-0.3-4.2-0.8c-1.3-0.5-2.3-1.3-3.1-2.2C2,15,1.6,14,1.6,12.9c0-0.3,0-0.7,0.1-1
	c-0.4-0.2-0.7-0.4-0.9-0.8c-0.2-0.3-0.3-0.7-0.3-1.1c0-0.6,0.2-1.1,0.6-1.5S2,7.9,2.6,7.9c0.6,0,1.1,0.2,1.5,0.7
	c1.5-1.1,3.4-1.6,5.5-1.7l1.2-5.5c0-0.1,0.1-0.2,0.2-0.2S11.2,1,11.3,1l3.9,0.9c0.1-0.3,0.3-0.5,0.6-0.6S16.3,1,16.6,1
	c0.4,0,0.8,0.2,1.1,0.5s0.5,0.7,0.5,1.1S18,3.4,17.7,3.7S17,4.2,16.6,4.2S15.8,4,15.5,3.7C15.2,3.4,15,3.1,15,2.6l-3.5-0.8l-1.1,5
	c2.1,0.1,4,0.6,5.5,1.7c0.4-0.4,0.9-0.6,1.5-0.6c0.6,0,1.1,0.2,1.5,0.6C19.3,8.9,19.5,9.4,19.5,10z M4.9,12.1c0,0.4,0.2,0.8,0.5,1.1
	c0.3,0.3,0.7,0.5,1.1,0.5s0.8-0.2,1.1-0.5c0.3-0.3,0.5-0.7,0.5-1.1c0-0.4-0.2-0.8-0.5-1.1c-0.3-0.3-0.7-0.5-1.1-0.5
	c-0.4,0-0.8,0.2-1.1,0.5C5.1,11.3,4.9,11.7,4.9,12.1z M13.5,15.9c0.1-0.1,0.1-0.2,0.1-0.3s0-0.2-0.1-0.3c-0.1-0.1-0.2-0.1-0.3-0.1
	s-0.2,0-0.3,0.1c-0.3,0.3-0.7,0.5-1.3,0.7c-0.6,0.1-1.1,0.2-1.7,0.2S8.9,16.1,8.3,16c-0.6-0.1-1-0.4-1.3-0.7
	c-0.1-0.1-0.2-0.1-0.3-0.1c-0.1,0-0.2,0-0.3,0.1c-0.1,0.1-0.1,0.2-0.1,0.3c0,0.1,0,0.2,0.1,0.3c0.3,0.3,0.7,0.5,1.3,0.7
	c0.5,0.2,1,0.3,1.3,0.3c0.3,0,0.7,0,1,0s0.6,0,1,0c0.3,0,0.8-0.1,1.3-0.3C12.8,16.4,13.2,16.2,13.5,15.9z M13.5,13.7
	c0.4,0,0.8-0.2,1.1-0.5s0.5-0.7,0.5-1.1c0-0.4-0.2-0.8-0.5-1.1c-0.3-0.3-0.7-0.5-1.1-0.5c-0.4,0-0.8,0.2-1.1,0.5
	c-0.3,0.3-0.5,0.7-0.5,1.1c0,0.4,0.2,0.8,0.5,1.1S13.1,13.7,13.5,13.7z"/>
</svg>
