<?xml version="1.0" encoding="utf-8"?>
<!-- Generator: Adobe Illustrator 21.0.0, SVG Export Plug-In . SVG Version: 6.00 Build 0)  -->
<!DOCTYPE svg PUBLIC "-//W3C//DTD SVG 1.1//EN" "https://www.w3.org/Graphics/SVG/1.1/DTD/svg11.dtd">
<svg version="1.1" id="Layer_1" xmlns="https://www.w3.org/2000/svg" xmlns:xlink="https://www.w3.org/1999/xlink" x="0px" y="0px"
	 viewBox="0 0 20 20" style="enable-background:new 0 0 20 20;" xml:space="preserve">
<path d="M12.1,12.9c0.1,0.1,0.1,0.2,0,0.3c-0.4,0.4-1.1,0.7-2.1,0.7s-1.7-0.2-2.1-0.7c-0.1-0.1-0.1-0.2,0-0.3c0,0,0.1-0.1,0.2-0.1
	c0.1,0,0.1,0,0.2,0.1c0.3,0.3,0.9,0.5,1.8,0.5c0.8,0,1.4-0.2,1.8-0.5c0,0,0.1-0.1,0.2-0.1C12,12.8,12.1,12.8,12.1,12.9z M8.9,11
	c0,0.3-0.1,0.5-0.3,0.7c-0.2,0.2-0.4,0.3-0.7,0.3c-0.3,0-0.5-0.1-0.7-0.3C7.1,11.4,7,11.2,7,11c0-0.3,0.1-0.5,0.3-0.7
	C7.4,10.1,7.6,10,7.9,10c0.3,0,0.5,0.1,0.7,0.3C8.8,10.5,8.9,10.7,8.9,11z M13,11c0,0.3-0.1,0.5-0.3,0.7c-0.2,0.2-0.4,0.3-0.7,0.3
	c-0.3,0-0.5-0.1-0.7-0.3c-0.2-0.2-0.3-0.4-0.3-0.7s0.1-0.5,0.3-0.7c0.2-0.2,0.4-0.3,0.7-0.3c0.3,0,0.5,0.1,0.7,0.3
	C12.9,10.5,13,10.7,13,11z M15.7,9.7c0-0.3-0.1-0.6-0.4-0.9c-0.2-0.2-0.5-0.4-0.9-0.4s-0.7,0.1-0.9,0.4c-0.9-0.6-2-1-3.3-1l0.7-3
	L13,5.3c0,0.3,0.1,0.5,0.3,0.7c0.2,0.2,0.4,0.3,0.7,0.3c0.3,0,0.5-0.1,0.7-0.3c0.2-0.2,0.3-0.4,0.3-0.7s-0.1-0.5-0.3-0.7
	c-0.2-0.2-0.4-0.3-0.7-0.3c-0.4,0-0.7,0.2-0.8,0.5l-2.3-0.5c-0.1,0-0.2,0-0.3,0.2L9.8,7.8c-1.3,0-2.4,0.4-3.3,1
	C6.2,8.6,5.9,8.4,5.6,8.4c-0.4,0-0.7,0.1-0.9,0.4C4.4,9,4.3,9.3,4.3,9.7c0,0.2,0.1,0.5,0.2,0.7c0.1,0.2,0.3,0.4,0.5,0.5
	C5,11,5,11.2,5,11.4c0,1,0.5,1.9,1.5,2.6c1,0.7,2.2,1.1,3.6,1.1c1.4,0,2.6-0.4,3.6-1.1c1-0.7,1.5-1.6,1.5-2.6c0-0.2,0-0.4-0.1-0.6
	c0.2-0.1,0.4-0.3,0.5-0.5C15.6,10.2,15.7,9.9,15.7,9.7z M19.5,10c0,1.3-0.3,2.5-0.8,3.7c-0.5,1.2-1.2,2.2-2,3c-0.8,0.8-1.9,1.5-3,2
	c-1.2,0.5-2.4,0.8-3.7,0.8s-2.5-0.3-3.7-0.8c-1.2-0.5-2.2-1.2-3-2c-0.8-0.8-1.5-1.9-2-3S0.5,11.3,0.5,10s0.3-2.5,0.8-3.7
	s1.2-2.2,2-3s1.9-1.5,3-2S8.7,0.5,10,0.5s2.5,0.3,3.7,0.8s2.2,1.2,3,2c0.8,0.8,1.5,1.9,2,3C19.2,7.5,19.5,8.7,19.5,10z"/>
</svg>
