<?xml version="1.0" encoding="utf-8"?>
<!-- Generator: Adobe Illustrator 21.0.0, SVG Export Plug-In . SVG Version: 6.00 Build 0)  -->
<!DOCTYPE svg PUBLIC "-//W3C//DTD SVG 1.1//EN" "https://www.w3.org/Graphics/SVG/1.1/DTD/svg11.dtd">
<svg version="1.1" id="Layer_1" xmlns="https://www.w3.org/2000/svg" xmlns:xlink="https://www.w3.org/1999/xlink" x="0px" y="0px"
	 viewBox="0 0 20 20" style="enable-background:new 0 0 20 20;" xml:space="preserve">
<path d="M12.1,12.9c0.1,0.1,0.1,0.2,0,0.3c-0.4,0.4-1.1,0.7-2.1,0.7s-1.7-0.2-2.1-0.7c-0.1-0.1-0.1-0.2,0-0.3c0,0,0.1-0.1,0.2-0.1
	c0.1,0,0.1,0,0.2,0.1c0.3,0.3,0.9,0.5,1.8,0.5s1.4-0.2,1.8-0.5c0,0,0.1-0.1,0.2-0.1C12,12.8,12.1,12.8,12.1,12.9z M8.9,11
	c0,0.3-0.1,0.5-0.3,0.7c-0.2,0.2-0.4,0.3-0.7,0.3c-0.3,0-0.5-0.1-0.7-0.3C7.1,11.4,7,11.2,7,11c0-0.3,0.1-0.5,0.3-0.7S7.6,10,7.9,10
	s0.5,0.1,0.7,0.3S8.9,10.7,8.9,11z M13,11c0,0.3-0.1,0.5-0.3,0.7c-0.2,0.2-0.4,0.3-0.7,0.3s-0.5-0.1-0.7-0.3
	c-0.2-0.2-0.3-0.4-0.3-0.7c0-0.3,0.1-0.5,0.3-0.7s0.4-0.3,0.7-0.3s0.5,0.1,0.7,0.3S13,10.7,13,11z M15.7,9.7c0-0.3-0.1-0.6-0.4-0.9
	c-0.2-0.2-0.5-0.4-0.9-0.4c-0.3,0-0.6,0.1-0.9,0.4c-0.9-0.6-2-1-3.3-1l0.7-3L13,5.3c0,0.3,0.1,0.5,0.3,0.7c0.2,0.2,0.4,0.3,0.7,0.3
	c0.3,0,0.5-0.1,0.7-0.3s0.3-0.4,0.3-0.7s-0.1-0.5-0.3-0.7S14.2,4.3,14,4.3c-0.4,0-0.7,0.2-0.9,0.5l-2.3-0.5c-0.1,0-0.2,0-0.3,0.2
	L9.8,7.8c-1.3,0-2.4,0.4-3.3,1C6.2,8.5,5.9,8.4,5.6,8.4c-0.4,0-0.7,0.1-0.9,0.4C4.4,9,4.3,9.3,4.3,9.7c0,0.2,0.1,0.5,0.2,0.7
	c0.1,0.2,0.3,0.4,0.5,0.5C5,11,5,11.2,5,11.4c0,1,0.5,1.9,1.5,2.6c1,0.7,2.2,1.1,3.6,1.1c1.4,0,2.6-0.4,3.6-1.1
	c1-0.7,1.5-1.6,1.5-2.6c0-0.2,0-0.4-0.1-0.6c0.2-0.1,0.4-0.3,0.5-0.5S15.7,9.9,15.7,9.7z M19.5,4.1v11.9c0,1-0.3,1.8-1,2.5
	c-0.7,0.7-1.5,1-2.5,1H4.1c-1,0-1.8-0.3-2.5-1c-0.7-0.7-1-1.5-1-2.5V4.1c0-1,0.3-1.8,1-2.5s1.5-1,2.5-1h11.9c1,0,1.8,0.3,2.5,1
	C19.2,2.2,19.5,3.1,19.5,4.1z"/>
</svg>
