<?xml version="1.0" encoding="utf-8"?>
<!-- Generator: Adobe Illustrator 21.0.0, SVG Export Plug-In . SVG Version: 6.00 Build 0)  -->
<!DOCTYPE svg PUBLIC "-//W3C//DTD SVG 1.1//EN" "http://www.w3.org/Graphics/SVG/1.1/DTD/svg11.dtd">
<svg version="1.1" id="Layer_1" xmlns="http://www.w3.org/2000/svg" xmlns:xlink="http://www.w3.org/1999/xlink" x="0px" y="0px"
	 viewBox="0 0 20 20" style="enable-background:new 0 0 20 20;" xml:space="preserve">
<path d="M17.8,9.4c0.5,0,0.9,0.2,1.2,0.5s0.5,0.7,0.5,1.2c0,0.7-0.4,1.2-1.1,1.5l-2,0.7l0.6,1.9c0.1,0.2,0.1,0.3,0.1,0.5
	c0,0.4-0.2,0.8-0.5,1.2c-0.3,0.3-0.7,0.5-1.2,0.5c-0.4,0-0.7-0.1-1-0.3c-0.3-0.2-0.5-0.5-0.6-0.8l-0.6-1.9l-3.5,1.2l0.6,1.9
	c0.1,0.2,0.1,0.4,0.1,0.5c0,0.4-0.2,0.8-0.5,1.2s-0.7,0.5-1.2,0.5c-0.4,0-0.7-0.1-1-0.3c-0.3-0.2-0.5-0.5-0.6-0.8l-0.6-1.9l-1.7,0.6
	c-0.2,0.1-0.4,0.1-0.6,0.1c-0.5,0-0.9-0.2-1.2-0.5s-0.5-0.7-0.5-1.2c0-0.4,0.1-0.7,0.3-1c0.2-0.3,0.5-0.5,0.8-0.6l1.8-0.6L4.5,9.9
	l-1.8,0.6c-0.2,0.1-0.4,0.1-0.5,0.1c-0.5,0-0.8-0.2-1.2-0.5S0.5,9.4,0.5,8.9c0-0.4,0.1-0.7,0.3-1s0.5-0.5,0.8-0.6l1.8-0.6L2.8,5
	C2.8,4.8,2.7,4.6,2.7,4.4c0-0.5,0.2-0.8,0.5-1.2s0.7-0.5,1.2-0.5c0.4,0,0.7,0.1,1,0.3c0.3,0.2,0.5,0.5,0.6,0.8l0.6,1.8l3.5-1.2
	L9.5,2.7C9.4,2.5,9.4,2.3,9.4,2.2c0-0.4,0.2-0.8,0.5-1.2c0.3-0.3,0.7-0.5,1.2-0.5c0.4,0,0.7,0.1,1,0.3c0.3,0.2,0.5,0.5,0.6,0.8
	l0.6,1.8l1.8-0.6c0.2,0,0.3-0.1,0.5-0.1c0.5,0,0.8,0.2,1.2,0.5c0.3,0.3,0.5,0.7,0.5,1.1c0,0.3-0.1,0.7-0.3,0.9
	c-0.2,0.3-0.5,0.5-0.8,0.6l-1.8,0.6l1.2,3.6l1.9-0.6C17.5,9.4,17.7,9.4,17.8,9.4z M8.8,12.4l3.5-1.2l-1.2-3.6L7.6,8.8L8.8,12.4z"/>
</svg>
