<?xml version="1.0" encoding="utf-8"?>
<!-- Generator: Adobe Illustrator 21.0.0, SVG Export Plug-In . SVG Version: 6.00 Build 0)  -->
<!DOCTYPE svg PUBLIC "-//W3C//DTD SVG 1.1//EN" "http://www.w3.org/Graphics/SVG/1.1/DTD/svg11.dtd">
<svg version="1.1" id="Layer_1" xmlns="http://www.w3.org/2000/svg" xmlns:xlink="http://www.w3.org/1999/xlink" x="0px" y="0px"
	 viewBox="0 0 20 20" style="enable-background:new 0 0 20 20;" xml:space="preserve">
<path d="M7,13.9l0.1-2L7,7.6c0-0.1,0-0.1-0.1-0.1c0,0-0.1-0.1-0.1-0.1c0,0-0.1,0-0.1,0.1c0,0-0.1,0.1-0.1,0.1l-0.1,4.3l0.1,2
	c0,0.1,0,0.1,0.1,0.1c0,0,0.1,0.1,0.1,0.1C6.9,14.1,7,14.1,7,13.9z M9.4,13.7l0.1-1.7L9.4,7.1c0-0.1,0-0.2-0.1-0.2c0,0-0.1,0-0.1,0
	c0,0-0.1,0-0.1,0C9,7,8.9,7,8.9,7.1l0,0l-0.1,4.8c0,0,0,0.7,0.1,1.9v0c0,0.1,0,0.1,0,0.1c0,0.1,0.1,0.1,0.2,0.1c0.1,0,0.1,0,0.2-0.1
	c0,0,0.1-0.1,0.1-0.2L9.4,13.7z M0.8,10.9L1,11.9l-0.2,1c0,0,0,0.1-0.1,0.1c0,0-0.1,0-0.1-0.1l-0.1-1l0.1-1.1
	C0.7,10.8,0.7,10.8,0.8,10.9C0.8,10.8,0.8,10.8,0.8,10.9z M1.5,10.2l0.2,1.7l-0.2,1.7c0,0,0,0.1-0.1,0.1c0,0-0.1,0-0.1-0.1l-0.2-1.7
	l0.2-1.7C1.3,10.2,1.4,10.2,1.5,10.2C1.5,10.2,1.5,10.2,1.5,10.2z M2.3,9.9l0.2,2l-0.2,2c0,0.1,0,0.1-0.1,0.1c-0.1,0-0.1,0-0.1-0.1
	l-0.2-2l0.2-2C2.1,9.9,2.1,9.8,2.3,9.9C2.2,9.8,2.3,9.9,2.3,9.9z M3,9.9l0.2,2.1L3,14c0,0.1,0,0.1-0.1,0.1c-0.1,0-0.1,0-0.1-0.1
	l-0.2-2l0.2-2.1c0-0.1,0-0.1,0.1-0.1C3,9.8,3,9.8,3,9.9z M3.8,10L4,11.9l-0.2,2c0,0.1-0.1,0.1-0.1,0.1c0,0-0.1,0-0.1,0
	c0,0,0-0.1,0-0.1l-0.2-2L3.6,10c0,0,0-0.1,0-0.1c0,0,0.1,0,0.1,0C3.8,9.9,3.8,9.9,3.8,10z M4.6,8.8l0.2,3.1l-0.2,2c0,0,0,0.1,0,0.1
	c0,0-0.1,0-0.1,0c-0.1,0-0.1,0-0.1-0.1l-0.1-2l0.1-3.1c0-0.1,0.1-0.1,0.1-0.1c0,0,0.1,0,0.1,0S4.6,8.8,4.6,8.8z M5.4,8.1L5.5,12
	l-0.2,2c0,0,0,0.1,0,0.1c0,0-0.1,0-0.1,0C5.1,14.1,5,14.1,5,14l-0.1-2L5,8.1C5,8,5.1,7.9,5.2,7.9c0,0,0.1,0,0.1,0S5.4,8.1,5.4,8.1z
	 M6.2,7.8l0.1,4.2l-0.1,2c0,0.1-0.1,0.2-0.2,0.2c-0.1,0-0.2-0.1-0.2-0.2l-0.1-2l0.1-4.2c0,0,0-0.1,0.1-0.1c0,0,0.1-0.1,0.1-0.1
	c0,0,0.1,0,0.1,0.1C6.1,7.7,6.2,7.7,6.2,7.8z M7.8,7.7l0.1,4.2l-0.1,2c0,0.1,0,0.1-0.1,0.1c0,0-0.1,0.1-0.1,0.1s-0.1,0-0.1-0.1
	c0,0-0.1-0.1-0.1-0.1l-0.1-2l0.1-4.2c0-0.1,0-0.1,0.1-0.1s0.1-0.1,0.1-0.1s0.1,0,0.1,0.1S7.8,7.7,7.8,7.7z M8.6,7.9l0.1,4.1
	l-0.1,1.9c0,0.1,0,0.1-0.1,0.2c0,0-0.1,0.1-0.2,0.1s-0.1,0-0.2-0.1c0,0-0.1-0.1-0.1-0.2L8,11.9l0.1-4.1c0-0.1,0-0.1,0.1-0.2
	c0,0,0.1-0.1,0.2-0.1s0.1,0,0.2,0.1C8.6,7.8,8.6,7.8,8.6,7.9z M10.3,11.9l-0.1,1.9c0,0.1,0,0.1-0.1,0.2c0,0-0.1,0.1-0.2,0.1
	c-0.1,0-0.1,0-0.2-0.1c0,0-0.1-0.1-0.1-0.2l0-0.9l0-1l0.1-5.2v0c0-0.1,0-0.1,0.1-0.2c0,0,0.1-0.1,0.2-0.1c0,0,0.1,0,0.1,0
	c0.1,0,0.1,0.1,0.1,0.2L10.3,11.9z M19.5,11.8c0,0.6-0.2,1.2-0.7,1.6s-1,0.7-1.6,0.7h-6.5c-0.1,0-0.1,0-0.2-0.1c0,0-0.1-0.1-0.1-0.2
	V6.4c0-0.1,0.1-0.2,0.2-0.3c0.5-0.2,1-0.3,1.5-0.3c1.1,0,2,0.4,2.8,1.1c0.8,0.7,1.2,1.6,1.3,2.7c0.3-0.1,0.6-0.2,0.9-0.2
	c0.6,0,1.2,0.2,1.6,0.7C19.3,10.6,19.5,11.1,19.5,11.8z"/>
</svg>
