<?xml version="1.0" encoding="utf-8"?>
<!-- Generator: Adobe Illustrator 21.0.0, SVG Export Plug-In . SVG Version: 6.00 Build 0)  -->
<!DOCTYPE svg PUBLIC "-//W3C//DTD SVG 1.1//EN" "http://www.w3.org/Graphics/SVG/1.1/DTD/svg11.dtd">
<svg version="1.1" id="Layer_1" xmlns="http://www.w3.org/2000/svg" xmlns:xlink="http://www.w3.org/1999/xlink" x="0px" y="0px"
	 viewBox="0 0 20 20" style="enable-background:new 0 0 20 20;" xml:space="preserve">
<path d="M10.9,17.8c0-0.2-0.1-0.4-0.3-0.6c-0.2-0.2-0.4-0.3-0.6-0.3S9.6,17,9.4,17.2c-0.2,0.2-0.3,0.4-0.3,0.6s0.1,0.4,0.3,0.6
	c0.2,0.2,0.4,0.3,0.6,0.3s0.4-0.1,0.6-0.3C10.8,18.2,10.9,18,10.9,17.8z M16,15.6v-13c0-0.1,0-0.2-0.1-0.3c-0.1-0.1-0.2-0.1-0.3-0.1
	H4.4c-0.1,0-0.2,0-0.3,0.1C4,2.4,4,2.5,4,2.7v13c0,0.1,0,0.2,0.1,0.3C4.2,16,4.3,16,4.4,16h11.2c0.1,0,0.2,0,0.3-0.1
	C16,15.8,16,15.7,16,15.6z M17.8,2.7v14.7c0,0.6-0.2,1.1-0.6,1.5s-0.9,0.6-1.5,0.6H4.4c-0.6,0-1.1-0.2-1.5-0.6s-0.6-0.9-0.6-1.5V2.7
	c0-0.6,0.2-1.1,0.6-1.5s0.9-0.6,1.5-0.6h11.2c0.6,0,1.1,0.2,1.5,0.6S17.8,2.1,17.8,2.7z"/>
</svg>
