<?xml version="1.0" encoding="utf-8"?>
<!-- Generator: Adobe Illustrator 21.0.0, SVG Export Plug-In . SVG Version: 6.00 Build 0)  -->
<!DOCTYPE svg PUBLIC "-//W3C//DTD SVG 1.1//EN" "http://www.w3.org/Graphics/SVG/1.1/DTD/svg11.dtd">
<svg version="1.1" id="Layer_1" xmlns="http://www.w3.org/2000/svg" xmlns:xlink="http://www.w3.org/1999/xlink" x="0px" y="0px"
	 viewBox="0 0 20 20" style="enable-background:new 0 0 20 20;" xml:space="preserve">
<path d="M14.5,15.7l0.9,2.7c-0.2,0.3-0.6,0.5-1.3,0.8c-0.7,0.2-1.3,0.4-2,0.4c-0.8,0-1.5-0.1-2.2-0.3c-0.7-0.2-1.2-0.5-1.6-0.8
	s-0.8-0.8-1.1-1.2c-0.3-0.5-0.5-0.9-0.6-1.4c-0.1-0.5-0.2-0.9-0.2-1.3V8.2H4.5V5.8C5.1,5.6,5.6,5.3,6,5c0.4-0.3,0.8-0.7,1-1
	c0.3-0.4,0.5-0.7,0.7-1.2C7.9,2.4,8,2,8.1,1.6s0.1-0.7,0.2-1c0,0,0-0.1,0.1-0.1c0,0,0.1,0,0.1,0h2.8v4.8H15v2.9h-3.8v5.9
	c0,0.2,0,0.4,0.1,0.6c0,0.2,0.1,0.4,0.3,0.6c0.1,0.2,0.3,0.4,0.6,0.5C12.3,16,12.6,16,13,16C13.6,16,14.1,15.9,14.5,15.7z"/>
</svg>
