<?xml version="1.0" encoding="utf-8"?>
<!-- Generator: Adobe Illustrator 21.0.0, SVG Export Plug-In . SVG Version: 6.00 Build 0)  -->
<!DOCTYPE svg PUBLIC "-//W3C//DTD SVG 1.1//EN" "http://www.w3.org/Graphics/SVG/1.1/DTD/svg11.dtd">
<svg version="1.1" id="Layer_1" xmlns="http://www.w3.org/2000/svg" xmlns:xlink="http://www.w3.org/1999/xlink" x="0px" y="0px"
	 viewBox="0 0 20 20" style="enable-background:new 0 0 20 20;" xml:space="preserve">
<path d="M16.5,6.8c0.1-1.8-0.6-2.7-2-2.7c-1.9-0.1-3.2,1-3.9,3.2c0.4-0.2,0.7-0.2,1-0.2c0.7,0,1,0.4,0.9,1.2c0,0.5-0.3,1.2-0.9,2.1
	c-0.6,0.9-1,1.4-1.3,1.4c-0.4,0-0.7-0.7-1-2.1C9.2,9.1,9,8.1,8.8,6.4c-0.2-1.6-0.9-2.3-2-2.2c-0.5,0.1-1.2,0.5-2,1.2l-1,0.9l-1,0.9
	l0.6,0.8c0.6-0.4,1-0.6,1.1-0.6c0.5,0,0.9,0.7,1.3,2.2c0.1,0.5,0.3,1.1,0.6,2s0.4,1.6,0.6,2c0.6,1.5,1.2,2.2,2,2.2
	c1.3,0,2.9-1.2,4.7-3.6C15.5,10,16.4,8.1,16.5,6.8z M19.5,4.1v11.9c0,1-0.3,1.8-1,2.5c-0.7,0.7-1.5,1-2.5,1H4.1c-1,0-1.8-0.3-2.5-1
	c-0.7-0.7-1-1.5-1-2.5V4.1c0-1,0.3-1.8,1-2.5s1.5-1,2.5-1h11.9c1,0,1.8,0.3,2.5,1C19.2,2.2,19.5,3.1,19.5,4.1z"/>
</svg>
