<?xml version="1.0" encoding="utf-8"?>
<!-- Generator: Adobe Illustrator 21.0.0, SVG Export Plug-In . SVG Version: 6.00 Build 0)  -->
<!DOCTYPE svg PUBLIC "-//W3C//DTD SVG 1.1//EN" "https://www.w3.org/Graphics/SVG/1.1/DTD/svg11.dtd">
<svg version="1.1" id="Layer_1" xmlns="https://www.w3.org/2000/svg" xmlns:xlink="https://www.w3.org/1999/xlink" x="0px" y="0px"
	 viewBox="0 0 20 20" style="enable-background:new 0 0 20 20;" xml:space="preserve">
<path d="M19.4,5.4C19.3,7.3,18,9.8,15.5,13c-2.6,3.4-4.8,5-6.6,5c-1.1,0-2-1-2.8-3.1c-0.3-1.2-0.9-3.1-1.5-5.6
	c-0.6-2-1.2-3.1-1.8-3.1c-0.1,0-0.6,0.3-1.5,0.9L0.4,6.1C0.6,5.9,1,5.5,1.7,4.9c0.7-0.6,1.2-1,1.5-1.3C4.4,2.5,5.4,1.9,6,1.9
	C6.8,1.8,7.3,2,7.8,2.5s0.8,1.3,0.9,2.4c0.3,2.2,0.6,3.7,0.8,4.4c0.4,1.9,0.9,2.9,1.4,2.9c0.4,0,1-0.6,1.8-1.9
	C13.5,9,13.9,8.1,14,7.4c0.1-1.1-0.3-1.6-1.3-1.6c-0.4,0-0.9,0.1-1.4,0.3C12.2,3,14,1.5,16.7,1.6C18.6,1.7,19.5,3,19.4,5.4z"/>
</svg>
