<?xml version="1.0" encoding="utf-8"?>
<!-- Generator: Adobe Illustrator 21.0.0, SVG Export Plug-In . SVG Version: 6.00 Build 0)  -->
<!DOCTYPE svg PUBLIC "-//W3C//DTD SVG 1.1//EN" "http://www.w3.org/Graphics/SVG/1.1/DTD/svg11.dtd">
<svg version="1.1" id="Layer_1" xmlns="http://www.w3.org/2000/svg" xmlns:xlink="http://www.w3.org/1999/xlink" x="0px" y="0px"
	 viewBox="0 0 20 20" style="enable-background:new 0 0 20 20;" xml:space="preserve">
<path d="M10.2,14.4v1.3c0,2.1,0,3.1-0.1,3.2c-0.1,0.2-0.3,0.4-0.5,0.4c-0.4,0.1-1-0.1-1.9-0.4c-0.9-0.3-1.5-0.6-1.7-0.9
	c-0.1-0.1-0.2-0.2-0.2-0.4c0-0.1,0-0.2,0-0.3c0-0.1,0.1-0.2,0.4-0.5c0.2-0.3,0.9-1,1.9-2.3c0,0,0.2-0.2,0.6-0.7
	c0.1-0.1,0.2-0.2,0.4-0.3c0.2,0,0.3,0,0.5,0c0.2,0.1,0.3,0.2,0.4,0.3C10.2,14.1,10.2,14.2,10.2,14.4z M8.6,11.7
	c0,0.4-0.2,0.6-0.6,0.7l-1.3,0.4c-1.9,0.6-3,0.9-3.1,0.9c-0.2,0-0.4-0.1-0.6-0.4C3,13.2,3,13,3,12.6c-0.1-0.5-0.1-1.1,0-1.8
	C3,10.2,3.1,9.8,3.3,9.5c0.1-0.2,0.3-0.4,0.6-0.3C4,9.2,4.7,9.5,6,10c0.5,0.2,0.9,0.4,1.2,0.5l0.9,0.4c0.2,0.1,0.3,0.2,0.4,0.3
	C8.6,11.4,8.6,11.5,8.6,11.7z M17.4,14.9c0,0.4-0.4,1-1,1.7s-1.1,1.2-1.4,1.3c-0.3,0.1-0.5,0.1-0.7-0.1c-0.1-0.1-0.7-1.1-1.9-3
	L11.9,14c-0.1-0.1-0.1-0.3-0.1-0.5c0-0.2,0.1-0.3,0.2-0.5c0.2-0.3,0.5-0.4,0.9-0.3c0,0,0.4,0.1,1.3,0.4c1.4,0.5,2.3,0.7,2.6,0.8
	c0.3,0.1,0.4,0.2,0.5,0.2C17.3,14.4,17.4,14.6,17.4,14.9z M10.3,8.2c0,0.7-0.2,1.2-0.6,1.3C9.3,9.6,8.9,9.3,8.5,8.7l-4-6.3
	c-0.1-0.2,0-0.5,0.2-0.7c0.3-0.3,1-0.6,2.2-0.9s2-0.4,2.4-0.3c0.3,0.1,0.5,0.2,0.5,0.5C9.8,1,9.9,2.1,10,4.1S10.2,7.5,10.3,8.2z
	 M17.3,9.3c0,0.3-0.1,0.5-0.3,0.6c-0.1,0.1-1.3,0.4-3.5,0.9c-0.5,0.1-0.8,0.2-1,0.2l0,0c-0.2,0-0.3,0-0.5,0
	c-0.2-0.1-0.3-0.2-0.4-0.3c-0.2-0.3-0.2-0.6,0-0.9c0,0,0.3-0.4,0.8-1.1c0.9-1.2,1.4-1.9,1.6-2.2c0.2-0.2,0.3-0.4,0.4-0.4
	c0.2-0.1,0.4-0.1,0.7,0c0.3,0.2,0.8,0.6,1.3,1.4C16.9,8.3,17.2,8.9,17.3,9.3L17.3,9.3z"/>
</svg>
