<?xml version="1.0" encoding="utf-8"?>
<!-- Generator: Adobe Illustrator 21.0.0, SVG Export Plug-In . SVG Version: 6.00 Build 0)  -->
<!DOCTYPE svg PUBLIC "-//W3C//DTD SVG 1.1//EN" "http://www.w3.org/Graphics/SVG/1.1/DTD/svg11.dtd">
<svg version="1.1" id="Layer_1" xmlns="http://www.w3.org/2000/svg" xmlns:xlink="http://www.w3.org/1999/xlink" x="0px" y="0px"
	 viewBox="0 0 20 20" style="enable-background:new 0 0 20 20;" xml:space="preserve">
<path d="M12.2,13.7v2.2c0,0.5-0.1,0.7-0.4,0.7c-0.2,0-0.3-0.1-0.5-0.2v-3.2c0.2-0.2,0.3-0.2,0.5-0.2C12,13,12.2,13.2,12.2,13.7z
	 M15.7,13.7v0.5h-1v-0.5c0-0.5,0.2-0.7,0.5-0.7C15.6,13,15.7,13.2,15.7,13.7z M5.5,11.4h1.1v-1H3.3v1h1.1v6h1.1V11.4z M8.5,17.4h0.9
	v-5.2H8.5v4c-0.2,0.3-0.4,0.4-0.6,0.4c-0.1,0-0.2-0.1-0.2-0.2c0,0,0-0.1,0-0.4v-3.9H6.8v4.1c0,0.3,0,0.6,0.1,0.8
	c0.1,0.3,0.3,0.4,0.6,0.4c0.3,0,0.7-0.2,1.1-0.6V17.4z M13.1,15.9v-2.1c0-0.5,0-0.9-0.1-1c-0.1-0.4-0.4-0.6-0.8-0.6
	c-0.4,0-0.7,0.2-1,0.6v-2.3h-0.9v7h0.9v-0.5c0.3,0.4,0.6,0.6,1,0.6c0.4,0,0.6-0.2,0.8-0.6C13.1,16.7,13.1,16.4,13.1,15.9z
	 M16.7,15.7v-0.1h-1c0,0.4,0,0.6,0,0.6c0,0.3-0.2,0.4-0.4,0.4c-0.3,0-0.5-0.2-0.5-0.7V15h1.9v-1.1c0-0.6-0.1-1-0.3-1.2
	c-0.3-0.4-0.7-0.5-1.1-0.5c-0.5,0-0.9,0.2-1.1,0.5c-0.2,0.3-0.3,0.7-0.3,1.2v1.8c0,0.6,0.1,1,0.3,1.2c0.3,0.4,0.7,0.5,1.1,0.5
	c0.5,0,0.9-0.2,1.1-0.6c0.1-0.2,0.2-0.4,0.2-0.6C16.7,16.3,16.7,16.1,16.7,15.7z M10.2,6.1V3.8c0-0.5-0.2-0.7-0.5-0.7
	S9.3,3.4,9.3,3.8v2.2c0,0.5,0.2,0.7,0.5,0.7S10.2,6.6,10.2,6.1z M17.9,14c0,1.7-0.1,2.9-0.3,3.7c-0.1,0.4-0.3,0.8-0.6,1
	s-0.7,0.4-1.1,0.5c-1.3,0.1-3.3,0.2-5.9,0.2s-4.6-0.1-5.9-0.2c-0.4,0-0.8-0.2-1.1-0.5s-0.5-0.6-0.6-1c-0.2-0.8-0.3-2-0.3-3.7
	c0-1.7,0.1-2.9,0.3-3.7c0.1-0.4,0.3-0.8,0.6-1C3.3,9,3.7,8.8,4.1,8.8C5.4,8.6,7.4,8.6,10,8.6s4.6,0.1,5.9,0.2c0.4,0,0.8,0.2,1.1,0.5
	c0.3,0.3,0.5,0.6,0.6,1C17.8,11.1,17.9,12.3,17.9,14z M7.3,0.5h1.1L7.1,4.7v2.9H6V4.7C5.9,4.2,5.7,3.5,5.4,2.5
	c-0.3-0.7-0.5-1.4-0.7-2h1.1l0.8,2.8L7.3,0.5z M11.2,4v1.9c0,0.6-0.1,1-0.3,1.3c-0.3,0.4-0.6,0.5-1.1,0.5c-0.5,0-0.8-0.2-1.1-0.5
	C8.5,6.9,8.4,6.5,8.4,5.9V4c0-0.6,0.1-1,0.3-1.2c0.3-0.4,0.6-0.5,1.1-0.5c0.5,0,0.9,0.2,1.1,0.5C11.1,3.1,11.2,3.5,11.2,4z
	 M14.8,2.3v5.3h-1V7c-0.4,0.4-0.7,0.7-1.1,0.7c-0.3,0-0.5-0.1-0.6-0.4C12,7.1,12,6.9,12,6.5V2.3h1v3.9c0,0.2,0,0.4,0,0.4
	c0,0.2,0.1,0.2,0.2,0.2c0.2,0,0.4-0.2,0.6-0.5v-4H14.8z"/>
</svg>
