<?xml version="1.0" encoding="utf-8"?>
<!-- Generator: Adobe Illustrator 21.0.0, SVG Export Plug-In . SVG Version: 6.00 Build 0)  -->
<!DOCTYPE svg PUBLIC "-//W3C//DTD SVG 1.1//EN" "https://www.w3.org/Graphics/SVG/1.1/DTD/svg11.dtd">
<svg version="1.1" id="Layer_1" xmlns="https://www.w3.org/2000/svg" xmlns:xlink="https://www.w3.org/1999/xlink" x="0px" y="0px"
	 viewBox="0 0 20 20" style="enable-background:new 0 0 20 20;" xml:space="preserve">
<path d="M11.9,15v-1.9c0-0.4-0.1-0.6-0.4-0.6c-0.1,0-0.3,0.1-0.4,0.2v2.8c0.1,0.1,0.3,0.2,0.4,0.2C11.7,15.6,11.9,15.4,11.9,15z
	 M14.1,13.5H15v-0.4c0-0.4-0.1-0.6-0.4-0.6c-0.3,0-0.4,0.2-0.4,0.6V13.5z M7.1,10.2v0.9h-1v5.2H5.2v-5.2h-1v-0.9H7.1z M9.6,11.8v4.5
	H8.7v-0.5c-0.3,0.4-0.6,0.6-0.9,0.6c-0.3,0-0.4-0.1-0.5-0.3c0-0.1-0.1-0.4-0.1-0.7v-3.6H8v3.3c0,0.2,0,0.3,0,0.3
	c0,0.1,0.1,0.2,0.2,0.2c0.2,0,0.3-0.1,0.5-0.4v-3.5H9.6z M12.7,13.2V15c0,0.4,0,0.7-0.1,0.9c-0.1,0.3-0.3,0.5-0.7,0.5
	c-0.3,0-0.6-0.2-0.8-0.5v0.4h-0.8v-6.1h0.8v2c0.3-0.3,0.5-0.5,0.8-0.5c0.3,0,0.6,0.2,0.7,0.5C12.7,12.4,12.7,12.7,12.7,13.2z
	 M15.8,14.8v0.1c0,0.2,0,0.4,0,0.5c0,0.2-0.1,0.3-0.2,0.5c-0.2,0.3-0.6,0.5-1,0.5c-0.4,0-0.8-0.2-1-0.5c-0.2-0.2-0.3-0.6-0.3-1.1
	v-1.6c0-0.5,0.1-0.8,0.2-1.1c0.2-0.3,0.6-0.5,1-0.5s0.7,0.2,1,0.5c0.2,0.2,0.3,0.6,0.3,1.1v0.9h-1.6V15c0,0.4,0.1,0.6,0.4,0.6
	c0.2,0,0.3-0.1,0.4-0.3c0,0,0,0,0-0.1s0-0.1,0-0.2v-0.3H15.8z M10.2,4.6v1.9c0,0.4-0.1,0.6-0.4,0.6S9.4,6.9,9.4,6.5V4.6
	c0-0.4,0.1-0.6,0.4-0.6S10.2,4.1,10.2,4.6z M16.8,13.4c0-1.5-0.1-2.5-0.2-3.2c-0.1-0.4-0.3-0.7-0.5-0.9c-0.3-0.2-0.6-0.4-0.9-0.4
	C14,8.7,12.3,8.7,10,8.7c-2.3,0-4,0.1-5.1,0.2C4.6,8.9,4.2,9,4,9.3s-0.4,0.5-0.5,0.9c-0.2,0.7-0.2,1.8-0.2,3.2
	c0,1.5,0.1,2.5,0.2,3.2C3.5,17,3.7,17.3,4,17.5c0.3,0.2,0.6,0.4,0.9,0.4c1.1,0.1,2.8,0.2,5.1,0.2s4-0.1,5.1-0.2
	c0.4,0,0.7-0.2,0.9-0.4c0.3-0.2,0.4-0.5,0.5-0.9C16.7,15.9,16.8,14.8,16.8,13.4z M7.5,5.3l1.1-3.7H7.6L7,4.1L6.4,1.7h-1l0.3,0.9
	L6,3.4c0.3,0.8,0.5,1.5,0.6,2v2.5h0.9V5.3z M11,6.3V4.7c0-0.5-0.1-0.8-0.3-1.1c-0.2-0.3-0.6-0.5-1-0.5c-0.4,0-0.7,0.2-1,0.5
	C8.7,3.9,8.6,4.3,8.6,4.7v1.6c0,0.5,0.1,0.8,0.3,1.1c0.2,0.3,0.5,0.5,1,0.5c0.4,0,0.7-0.2,1-0.5C11,7.2,11,6.8,11,6.3z M13.3,7.8
	h0.8V3.2h-0.8v3.5c-0.2,0.3-0.4,0.4-0.5,0.4c-0.1,0-0.2-0.1-0.2-0.2c0,0,0-0.1,0-0.3V3.2h-0.8v3.6c0,0.3,0,0.5,0.1,0.7
	c0.1,0.2,0.3,0.3,0.5,0.3c0.3,0,0.6-0.2,1-0.6V7.8z M19.5,4.1v11.9c0,1-0.3,1.8-1,2.5c-0.7,0.7-1.5,1-2.5,1H4.1c-1,0-1.8-0.3-2.5-1
	c-0.7-0.7-1-1.5-1-2.5V4.1c0-1,0.3-1.8,1-2.5s1.5-1,2.5-1h11.9c1,0,1.8,0.3,2.5,1C19.2,2.2,19.5,3.1,19.5,4.1z"/>
</svg>
